<svg width="760" height="573" viewBox="0 0 760 573" fill="none" xmlns="http://www.w3.org/2000/svg">
<g filter="url(#filter0_d_219_53)">
<rect x="168" y="56" width="150" height="150" rx="75" fill="white"/>
<path d="M269.346 168.217H252.142L233.001 181.713C230.162 183.719 226.335 181.576 226.335 177.928V168.217C213.431 168.217 204.829 159.097 204.829 145.419V118.061C204.829 104.382 213.431 95.2632 226.335 95.2632H269.346C282.25 95.2632 290.852 104.382 290.852 118.061V145.419C290.852 159.097 282.25 168.217 269.346 168.217Z" fill="#ADD4FF"/>
<path d="M267.9 123.835L263.684 116.561V114.846H265.089C265.652 114.846 266.143 114.769 266.565 114.614C267.002 114.445 267.361 114.205 267.643 113.896C267.939 113.587 268.142 113.217 268.252 112.784H263.684V111.07H268.228C268.134 110.668 267.97 110.313 267.736 110.004C267.518 109.695 267.221 109.456 266.846 109.286C266.487 109.101 266.05 109.008 265.534 109.008H263.684V107.294H274.248V109.008H270.571C270.836 109.301 271.055 109.618 271.227 109.958C271.414 110.298 271.539 110.668 271.601 111.07H274.248V112.784H271.648C271.492 113.927 271.047 114.823 270.313 115.472C269.579 116.105 268.634 116.537 267.479 116.769L272.07 123.835H267.9Z" fill="#157EFB"/>
<path d="M267.274 169.941H248.61L227.845 183.703C224.766 185.748 220.613 183.563 220.613 179.844V169.941C206.614 169.941 197.282 160.642 197.282 146.693V118.797C197.282 104.848 206.614 95.5496 220.613 95.5496H267.274C281.272 95.5496 290.604 104.848 290.604 118.797V146.693C290.604 160.642 281.272 169.941 267.274 169.941Z" stroke="#157EFB" stroke-width="4.72806" stroke-miterlimit="10" stroke-linecap="round" stroke-linejoin="round"/>
<path d="M243.326 130.134C249.514 130.134 254.531 125.135 254.531 118.969C254.531 112.803 249.514 107.804 243.326 107.804C237.138 107.804 232.121 112.803 232.121 118.969C232.121 125.135 237.138 130.134 243.326 130.134Z" stroke="#157EFB" stroke-width="4.72806" stroke-linecap="round" stroke-linejoin="round"/>
<path opacity="0.4" d="M262.576 152.463C262.576 143.822 253.949 136.833 243.327 136.833C232.704 136.833 224.077 143.822 224.077 152.463" stroke="#157EFB" stroke-width="4.72806" stroke-linecap="round" stroke-linejoin="round"/>
</g>
<g filter="url(#filter1_d_219_53)">
<rect x="443" y="349" width="150" height="150" rx="75" fill="white"/>
<g clip-path="url(#clip0_219_53)">
<path d="M515.789 395.281V382C505.886 382.531 496.889 386.471 489.948 392.735L499.321 402.12C503.83 398.247 509.511 395.768 515.789 395.281Z" fill="#A3D4FF"/>
<path d="M546.052 392.735C539.11 386.471 530.114 382.531 520.21 382V395.281C526.466 395.768 532.169 398.247 536.679 402.12L546.052 392.735Z" fill="#A3D4FF"/>
<path d="M491.496 412.877C492.667 410.089 494.259 407.521 496.204 405.241L486.832 395.856C480.112 403.315 476 413.143 476 423.945C476 425.162 476.995 426.158 478.211 426.158H480.421V421.731C480.421 416.84 484.378 412.877 489.263 412.877H491.496Z" fill="#A3D4FF"/>
<path d="M549.169 395.856L539.796 405.241C541.741 407.521 543.333 410.089 544.504 412.877H546.737C551.622 412.877 555.579 416.84 555.579 421.731V426.158H557.79C559.005 426.158 560 425.162 560 423.945C560 413.143 555.889 403.315 549.169 395.856Z" fill="#A3D4FF"/>
<path d="M518 426.158C519.221 426.158 520.211 425.167 520.211 423.945C520.211 422.722 519.221 421.731 518 421.731C516.779 421.731 515.79 422.722 515.79 423.945C515.79 425.167 516.779 426.158 518 426.158Z" fill="#A3D4FF"/>
<path d="M518 436.583C525.317 436.583 531.263 430.629 531.263 423.303C531.263 416.485 520.63 404.422 519.415 403.072C518.707 402.275 517.315 402.275 516.585 403.072C515.369 404.422 504.737 416.485 504.737 423.303C504.737 430.629 510.683 436.583 518 436.583ZM518 417.304C521.647 417.304 524.632 420.292 524.632 423.945C524.632 427.597 521.647 430.585 518 430.585C514.353 430.585 511.368 427.597 511.368 423.945C511.368 420.292 514.353 417.304 518 417.304Z" fill="#A3D4FF"/>
<path d="M546.737 417.304H534.336C535.176 419.385 535.684 421.443 535.684 423.325C535.684 433.086 527.749 441.032 518 441.032C508.252 441.032 500.316 433.086 500.316 423.325C500.316 421.443 500.824 419.385 501.664 417.304H489.263C486.832 417.304 484.842 419.296 484.842 421.731V454.933H551.158V421.731C551.158 419.296 549.169 417.304 546.737 417.304ZM500.316 450.506H491.474C490.258 450.506 489.263 449.51 489.263 448.292C489.263 447.075 490.258 446.079 491.474 446.079H500.316C501.532 446.079 502.526 447.075 502.526 448.292C502.526 449.51 501.532 450.506 500.316 450.506ZM509.158 450.506C507.942 450.506 506.948 449.51 506.948 448.292C506.948 447.075 507.942 446.079 509.158 446.079C510.374 446.079 511.369 447.075 511.369 448.292C511.369 449.51 510.374 450.506 509.158 450.506Z" fill="#A3D4FF"/>
<path d="M484.842 461.573C484.842 464.008 486.832 466 489.263 466H546.737C549.169 466 551.158 464.008 551.158 461.573V459.36H484.842V461.573Z" fill="#A3D4FF"/>
</g>
</g>
<g filter="url(#filter2_d_219_53)">
<rect x="580" y="135" width="120" height="120" rx="60" fill="white"/>
<path d="M639.955 164.371L625.074 170.756C621.645 172.224 618.842 176.868 618.842 181.068V206.439C618.842 210.468 621.168 215.761 624.001 218.185L636.824 229.146C641.029 232.766 647.947 232.766 652.152 229.146L664.975 218.185C667.808 215.761 670.134 210.468 670.134 206.439V181.068C670.134 176.868 667.331 172.224 663.901 170.756L649.021 164.371C646.486 163.312 642.43 163.312 639.955 164.371Z" fill="#8169F1" fill-opacity="0.1"/>
<path d="M635.574 164.371L618.535 170.756C614.608 172.224 611.398 176.868 611.398 181.068V206.439C611.398 210.468 614.062 215.761 617.306 218.185L631.989 229.146C636.803 232.766 644.725 232.766 649.54 229.146L664.223 218.185C667.467 215.761 670.13 210.468 670.13 206.439V181.068C670.13 176.868 666.92 172.224 662.993 170.756L645.955 164.371C643.052 163.312 638.408 163.312 635.574 164.371Z" stroke="#8169F1" stroke-width="3.53854" stroke-linecap="round" stroke-linejoin="round"/>
<path opacity="0.4" d="M640.733 209.519C648.483 209.519 654.766 203.236 654.766 195.486C654.766 187.736 648.483 181.454 640.733 181.454C632.983 181.454 626.7 187.736 626.7 195.486C626.7 203.236 632.983 209.519 640.733 209.519Z" stroke="#8169F1" stroke-width="3.53854" stroke-miterlimit="10" stroke-linecap="round" stroke-linejoin="round"/>
<path d="M639.935 201.661L636.798 196.23V194.95H637.844C638.262 194.95 638.628 194.893 638.942 194.777C639.267 194.65 639.534 194.472 639.743 194.241C639.964 194.011 640.115 193.734 640.196 193.411H636.798V192.131H640.179C640.109 191.831 639.987 191.566 639.813 191.336C639.65 191.105 639.43 190.926 639.151 190.799C638.884 190.661 638.558 190.592 638.175 190.592H636.798V189.312H644.657V190.592H641.921C642.119 190.811 642.281 191.047 642.409 191.301C642.548 191.555 642.641 191.831 642.688 192.131H644.657V193.411H642.723C642.606 194.264 642.276 194.933 641.73 195.417C641.184 195.89 640.481 196.213 639.621 196.386L643.036 201.661H639.935Z" fill="#8169F1"/>
</g>
<g filter="url(#filter3_d_219_53)">
<rect x="420" y="147" width="100" height="100" rx="50" fill="white"/>
<g clip-path="url(#clip1_219_53)">
<path d="M448 221.237C448 224.408 450.553 227 453.736 227H480.419C483.602 227 486.118 224.41 486.118 221.237V206.375H484.066L482.353 207.943V215.511C482.353 217.058 481.151 218.328 479.598 218.328H454.56C453.007 218.328 451.765 217.055 451.765 215.511V175.217C451.765 173.673 453.019 172.391 454.56 172.391H479.6C481.139 172.391 482.355 173.67 482.355 175.217V177.312H486.12V172.761C486.12 169.59 483.598 167 480.421 167H453.736C450.56 167 448 169.59 448 172.761V221.237ZM464.049 220.906H470.106C470.936 220.906 471.612 221.602 471.612 222.43C471.612 223.257 470.936 223.953 470.106 223.953H464.049C463.216 223.953 462.544 223.257 462.544 222.43C462.544 221.602 463.219 220.906 464.049 220.906ZM464 169.344H470.118C471.059 169.344 471.059 170.516 470.118 170.516H464C463.059 170.516 463.059 169.344 464 169.344Z" fill="#E75D5C"/>
<path d="M473.976 212.598C474.398 212.647 474.795 212.49 475.068 212.206L483.306 204.5H490.315C493.468 204.5 496 201.931 496 198.791V184.92C496 181.777 493.471 179.188 490.315 179.188H465.774C462.621 179.188 460 181.777 460 184.92V198.791C460 201.931 462.624 204.5 465.774 204.5H473.64L472.84 211.161C472.755 211.871 473.266 212.516 473.979 212.598H473.976ZM473.398 198.141C473.141 198.029 473.007 197.755 473.075 197.485L473.466 195.971C473.508 195.805 473.612 195.678 473.767 195.603C473.922 195.528 474.087 195.526 474.245 195.596C475.12 195.983 476.209 196.287 477.388 196.287C478.699 196.287 479.579 195.77 479.579 194.893C479.579 194.016 478.859 193.498 477.165 192.936C474.748 192.125 473.104 191.002 473.104 188.82C473.104 186.941 474.346 185.457 476.499 184.911C476.753 184.845 476.941 184.625 476.941 184.363V183.245C476.941 182.933 477.167 182.703 477.48 182.703H478.56C478.873 182.703 479.059 182.933 479.059 183.245V184.126C479.059 184.421 479.318 184.665 479.614 184.688C480.567 184.766 481.344 184.967 481.955 185.204C482.226 185.309 482.372 185.595 482.299 185.874L481.92 187.297C481.878 187.461 481.776 187.583 481.624 187.658C481.473 187.733 481.313 187.737 481.155 187.674C480.544 187.423 479.666 187.156 478.496 187.156C477.028 187.156 476.555 187.808 476.555 188.438C476.555 189.158 477.348 189.652 479.289 190.351C481.976 191.295 483.04 192.533 483.04 194.579C483.04 196.466 481.802 198.092 479.487 198.631C479.228 198.692 479.061 198.915 479.061 199.182V200.471C479.061 200.783 478.784 200.989 478.471 200.989H477.369C477.056 200.989 476.708 200.783 476.708 200.471V199.426C476.708 199.133 476.534 198.891 476.242 198.863C475.146 198.758 474.155 198.477 473.398 198.146V198.141Z" fill="#E75D5C"/>
</g>
</g>
<g filter="url(#filter4_d_219_53)">
<rect x="60" y="389" width="120" height="120" rx="60" fill="white"/>
<path d="M131.734 418.214H114.106C104.488 418.214 96.6914 426.584 96.6914 436.91V462.09C96.6914 472.415 104.488 480.786 114.106 480.786H131.734C141.352 480.786 149.148 472.415 149.148 462.09V436.91C149.148 426.584 141.352 418.214 131.734 418.214Z" fill="#EB001B" fill-opacity="0.11"/>
<path d="M128.5 419.083H134.167C142.667 419.083 148.333 425.167 148.333 434.292V440.375" stroke="#EB001B" stroke-width="3.66425" stroke-miterlimit="10" stroke-linecap="round" stroke-linejoin="round"/>
<path d="M91.6646 440.375V434.292C91.6646 425.167 97.3312 419.083 105.831 419.083H111.498" stroke="#EB001B" stroke-width="3.66425" stroke-miterlimit="10" stroke-linecap="round" stroke-linejoin="round"/>
<path d="M128.5 479.917H134.167C142.667 479.917 148.333 473.833 148.333 464.708V458.625" stroke="#EB001B" stroke-width="3.66425" stroke-miterlimit="10" stroke-linecap="round" stroke-linejoin="round"/>
<path d="M91.6646 458.625V464.708C91.6646 473.833 97.3312 479.917 105.831 479.917H111.498" stroke="#EB001B" stroke-width="3.66425" stroke-miterlimit="10" stroke-linecap="round" stroke-linejoin="round"/>
<path d="M137.437 442.518V434.956C137.437 431.98 136.321 430.782 133.549 430.782H126.504C123.732 430.782 122.616 431.98 122.616 434.956V442.518C122.616 445.494 123.732 446.692 126.504 446.692H133.549C136.321 446.692 137.437 445.494 137.437 442.518Z" stroke="#EB001B" stroke-width="3.66425" stroke-linecap="round" stroke-linejoin="round"/>
<path d="M117.389 442.986V434.488C117.389 431.849 116.273 430.782 113.501 430.782H106.457C103.684 430.782 102.568 431.849 102.568 434.488V442.967C102.568 445.625 103.684 446.673 106.457 446.673H113.501C116.273 446.692 117.389 445.625 117.389 442.986Z" stroke="#EB001B" stroke-width="3.66425" stroke-linecap="round" stroke-linejoin="round"/>
<path d="M117.389 464.044V456.482C117.389 453.505 116.273 452.308 113.501 452.308H106.457C103.684 452.308 102.568 453.505 102.568 456.482V464.044C102.568 467.02 103.684 468.218 106.457 468.218H113.501C116.273 468.218 117.389 467.02 117.389 464.044Z" stroke="#EB001B" stroke-width="3.66425" stroke-linecap="round" stroke-linejoin="round"/>
<path opacity="0.4" d="M125.233 456.051H135.695" stroke="#EB001B" stroke-width="3.66425" stroke-linecap="round"/>
<path opacity="0.4" d="M125.233 463.538H135.695" stroke="#EB001B" stroke-width="3.66425" stroke-linecap="round"/>
</g>
<g filter="url(#filter5_d_219_53)">
<rect x="251" y="318" width="120" height="120" rx="60" fill="white"/>
<g clip-path="url(#clip2_219_53)">
<path d="M306.763 341.161C308.021 342.419 310.059 342.419 311.316 341.161C313.452 339.025 316.916 339.025 319.053 341.161C320.31 342.419 322.348 342.419 323.605 341.161L323.624 341.142C324.562 340.204 326.122 341.182 325.687 342.435L322.2 352.469H308.205L304.702 342.457C304.264 341.203 305.825 340.222 306.763 341.161Z" fill="#45C646" fill-opacity="0.11"/>
<path d="M333.444 363.957L321.956 352.469H308.449L296.961 363.957C286.886 374.032 286.886 390.366 296.961 400.441C307.035 410.516 323.37 410.516 333.444 400.441C343.519 390.366 343.519 374.032 333.444 363.957Z" fill="#45C646" fill-opacity="0.11"/>
<path d="M286.312 416.434H316.661C322.687 416.434 328.475 414.085 332.796 409.885L348.096 395.016C350.627 392.556 349.39 388.267 345.938 387.533C344.566 387.242 343.137 387.619 342.089 388.55L326.76 402.165C324.178 404.458 320.845 405.725 317.392 405.725L301.394 400.856L316.048 405.516C317.993 406.134 320.108 405.347 321.175 403.607C322.552 401.363 321.684 398.421 319.31 397.284L308.279 392.001C303.808 389.859 298.661 389.615 294.007 391.324L286.344 394.138L286.312 416.434Z" fill="#45C646" fill-opacity="0.11"/>
<path d="M283.969 392.667H279.363C278.426 392.667 277.667 393.952 277.667 395.538V413.795C277.667 415.381 278.426 416.667 279.363 416.667H283.97C284.907 416.667 285.667 415.381 285.667 413.795V395.538C285.666 393.952 284.907 392.667 283.969 392.667Z" fill="#45C646" fill-opacity="0.11"/>
<path d="M315.203 371.895C316.337 371.895 317.26 372.668 317.26 373.618C317.26 374.48 317.96 375.18 318.823 375.18C319.685 375.18 320.385 374.48 320.385 373.618C320.385 371.454 318.861 369.617 316.765 368.995V368.778C316.765 367.915 316.065 367.216 315.203 367.216C314.34 367.216 313.64 367.915 313.64 368.778V368.995C311.544 369.617 310.02 371.454 310.02 373.618C310.02 376.291 312.345 378.465 315.203 378.465C316.337 378.465 317.26 379.238 317.26 380.188C317.26 381.138 316.337 381.911 315.203 381.911C314.068 381.911 313.145 381.138 313.145 380.188C313.145 379.326 312.445 378.626 311.583 378.626C310.72 378.626 310.02 379.326 310.02 380.188C310.02 382.352 311.544 384.189 313.64 384.811V385.028C313.64 385.891 314.34 386.59 315.203 386.59C316.065 386.59 316.765 385.891 316.765 385.028V384.811C318.861 384.189 320.385 382.352 320.385 380.188C320.385 377.515 318.06 375.34 315.203 375.34C314.068 375.34 313.145 374.568 313.145 373.618C313.145 372.668 314.068 371.895 315.203 371.895Z" fill="#45C646"/>
<path d="M350.762 390.195C350.15 388.07 348.425 386.465 346.263 386.005C344.878 385.71 343.438 385.925 342.208 386.579C342.92 382.15 342.546 377.569 341.08 373.298C340.8 372.482 339.911 372.048 339.095 372.328C338.279 372.608 337.845 373.496 338.125 374.313C339.855 379.356 339.87 384.888 338.174 389.938L325.722 400.997C324.954 401.679 324.111 402.257 323.216 402.727C323.469 401.703 323.452 400.618 323.148 399.588C322.667 397.961 321.515 396.607 319.985 395.875L308.954 390.591C304.131 388.281 298.487 388.014 293.468 389.857L292.347 390.269C289.235 381.477 291.401 371.727 298.065 365.062L309.096 354.031H321.308L330.655 363.378C331.265 363.988 332.254 363.988 332.865 363.378C333.475 362.768 333.475 361.778 332.865 361.168L323.934 352.238L327.163 342.948C327.595 341.703 327.118 340.344 326 339.643C324.883 338.943 323.452 339.106 322.52 340.038L322.5 340.057C321.855 340.703 320.803 340.703 320.158 340.057C317.415 337.315 312.953 337.315 310.211 340.057C309.898 340.37 309.482 340.542 309.04 340.542C308.597 340.542 308.181 340.37 307.868 340.057C306.935 339.123 305.503 338.962 304.385 339.664C303.267 340.366 302.791 341.727 303.227 342.973L306.47 352.239L295.856 362.853C291.928 366.781 289.317 371.733 288.305 377.175C287.418 381.947 287.802 386.813 289.411 391.347L286.948 392.251C286.128 391.186 284.841 390.497 283.396 390.497H275.479C273.009 390.497 271 392.506 271 394.976V413.518C271 415.988 273.009 417.997 275.479 417.997H316.661C323.13 417.997 329.247 415.514 333.885 411.006L349.185 396.136C350.77 394.596 351.375 392.319 350.762 390.195ZM309.04 343.667C310.317 343.667 311.517 343.17 312.421 342.266C313.945 340.743 316.424 340.743 317.948 342.266C318.851 343.17 320.052 343.667 321.329 343.667C322.236 343.667 323.104 343.416 323.855 342.948L321.089 350.907H309.314L306.533 342.96C307.279 343.421 308.14 343.667 309.04 343.667ZM274.125 413.518V394.976C274.125 394.23 274.733 393.622 275.479 393.622H283.396C284.142 393.622 284.75 394.23 284.75 394.976V413.518C284.75 414.265 284.142 414.872 283.396 414.872H275.479C274.733 414.872 274.125 414.265 274.125 413.518ZM347.007 393.896L331.707 408.765C327.655 412.703 322.312 414.872 316.661 414.872H287.665C287.801 414.445 287.875 413.99 287.875 413.518V395.24L294.545 392.791C298.777 391.237 303.538 391.462 307.604 393.41L318.635 398.693C319.379 399.05 319.917 399.682 320.15 400.473C320.384 401.264 320.275 402.087 319.843 402.791C319.15 403.92 317.784 404.428 316.521 404.027L301.867 399.367C301.045 399.106 300.166 399.56 299.904 400.383C299.643 401.205 300.098 402.084 300.92 402.345L315.574 407.005C316.178 407.197 316.792 407.289 317.399 407.289C317.472 407.289 317.545 407.285 317.618 407.282C321.376 407.228 324.983 405.833 327.797 403.334L343.126 389.719C343.801 389.12 344.731 388.874 345.613 389.062C346.66 389.285 347.463 390.032 347.759 391.061C348.056 392.089 347.775 393.149 347.007 393.896Z" fill="#45C646"/>
<path d="M336.428 369.092C336.839 369.092 337.242 368.926 337.533 368.634C337.823 368.344 337.991 367.942 337.991 367.53C337.991 367.119 337.824 366.717 337.533 366.425C337.242 366.134 336.839 365.967 336.428 365.967C336.017 365.967 335.616 366.134 335.324 366.425C335.033 366.717 334.866 367.119 334.866 367.53C334.866 367.942 335.033 368.344 335.324 368.634C335.614 368.926 336.017 369.092 336.428 369.092Z" fill="#45C646"/>
</g>
</g>
<defs>
<filter id="filter0_d_219_53" x="108" y="0" width="270" height="270" filterUnits="userSpaceOnUse" color-interpolation-filters="sRGB">
<feFlood flood-opacity="0" result="BackgroundImageFix"/>
<feColorMatrix in="SourceAlpha" type="matrix" values="0 0 0 0 0 0 0 0 0 0 0 0 0 0 0 0 0 0 127 0" result="hardAlpha"/>
<feOffset dy="4"/>
<feGaussianBlur stdDeviation="30"/>
<feComposite in2="hardAlpha" operator="out"/>
<feColorMatrix type="matrix" values="0 0 0 0 0.172549 0 0 0 0 0.372549 0 0 0 0 0.67451 0 0 0 0.5 0"/>
<feBlend mode="normal" in2="BackgroundImageFix" result="effect1_dropShadow_219_53"/>
<feBlend mode="normal" in="SourceGraphic" in2="effect1_dropShadow_219_53" result="shape"/>
</filter>
<filter id="filter1_d_219_53" x="383" y="293" width="270" height="270" filterUnits="userSpaceOnUse" color-interpolation-filters="sRGB">
<feFlood flood-opacity="0" result="BackgroundImageFix"/>
<feColorMatrix in="SourceAlpha" type="matrix" values="0 0 0 0 0 0 0 0 0 0 0 0 0 0 0 0 0 0 127 0" result="hardAlpha"/>
<feOffset dy="4"/>
<feGaussianBlur stdDeviation="30"/>
<feComposite in2="hardAlpha" operator="out"/>
<feColorMatrix type="matrix" values="0 0 0 0 0.172549 0 0 0 0 0.372549 0 0 0 0 0.67451 0 0 0 0.5 0"/>
<feBlend mode="normal" in2="BackgroundImageFix" result="effect1_dropShadow_219_53"/>
<feBlend mode="normal" in="SourceGraphic" in2="effect1_dropShadow_219_53" result="shape"/>
</filter>
<filter id="filter2_d_219_53" x="520" y="79" width="240" height="240" filterUnits="userSpaceOnUse" color-interpolation-filters="sRGB">
<feFlood flood-opacity="0" result="BackgroundImageFix"/>
<feColorMatrix in="SourceAlpha" type="matrix" values="0 0 0 0 0 0 0 0 0 0 0 0 0 0 0 0 0 0 127 0" result="hardAlpha"/>
<feOffset dy="4"/>
<feGaussianBlur stdDeviation="30"/>
<feComposite in2="hardAlpha" operator="out"/>
<feColorMatrix type="matrix" values="0 0 0 0 0.172549 0 0 0 0 0.372549 0 0 0 0 0.67451 0 0 0 0.5 0"/>
<feBlend mode="normal" in2="BackgroundImageFix" result="effect1_dropShadow_219_53"/>
<feBlend mode="normal" in="SourceGraphic" in2="effect1_dropShadow_219_53" result="shape"/>
</filter>
<filter id="filter3_d_219_53" x="360" y="91" width="220" height="220" filterUnits="userSpaceOnUse" color-interpolation-filters="sRGB">
<feFlood flood-opacity="0" result="BackgroundImageFix"/>
<feColorMatrix in="SourceAlpha" type="matrix" values="0 0 0 0 0 0 0 0 0 0 0 0 0 0 0 0 0 0 127 0" result="hardAlpha"/>
<feOffset dy="4"/>
<feGaussianBlur stdDeviation="30"/>
<feComposite in2="hardAlpha" operator="out"/>
<feColorMatrix type="matrix" values="0 0 0 0 0.172549 0 0 0 0 0.372549 0 0 0 0 0.67451 0 0 0 0.5 0"/>
<feBlend mode="normal" in2="BackgroundImageFix" result="effect1_dropShadow_219_53"/>
<feBlend mode="normal" in="SourceGraphic" in2="effect1_dropShadow_219_53" result="shape"/>
</filter>
<filter id="filter4_d_219_53" x="0" y="333" width="240" height="240" filterUnits="userSpaceOnUse" color-interpolation-filters="sRGB">
<feFlood flood-opacity="0" result="BackgroundImageFix"/>
<feColorMatrix in="SourceAlpha" type="matrix" values="0 0 0 0 0 0 0 0 0 0 0 0 0 0 0 0 0 0 127 0" result="hardAlpha"/>
<feOffset dy="4"/>
<feGaussianBlur stdDeviation="30"/>
<feComposite in2="hardAlpha" operator="out"/>
<feColorMatrix type="matrix" values="0 0 0 0 0.172549 0 0 0 0 0.372549 0 0 0 0 0.67451 0 0 0 0.5 0"/>
<feBlend mode="normal" in2="BackgroundImageFix" result="effect1_dropShadow_219_53"/>
<feBlend mode="normal" in="SourceGraphic" in2="effect1_dropShadow_219_53" result="shape"/>
</filter>
<filter id="filter5_d_219_53" x="191" y="262" width="240" height="240" filterUnits="userSpaceOnUse" color-interpolation-filters="sRGB">
<feFlood flood-opacity="0" result="BackgroundImageFix"/>
<feColorMatrix in="SourceAlpha" type="matrix" values="0 0 0 0 0 0 0 0 0 0 0 0 0 0 0 0 0 0 127 0" result="hardAlpha"/>
<feOffset dy="4"/>
<feGaussianBlur stdDeviation="30"/>
<feComposite in2="hardAlpha" operator="out"/>
<feColorMatrix type="matrix" values="0 0 0 0 0.172549 0 0 0 0 0.372549 0 0 0 0 0.67451 0 0 0 0.5 0"/>
<feBlend mode="normal" in2="BackgroundImageFix" result="effect1_dropShadow_219_53"/>
<feBlend mode="normal" in="SourceGraphic" in2="effect1_dropShadow_219_53" result="shape"/>
</filter>
<clipPath id="clip0_219_53">
<rect width="84" height="84" fill="white" transform="translate(476 382)"/>
</clipPath>
<clipPath id="clip1_219_53">
<rect width="48" height="60" fill="white" transform="translate(448 167)"/>
</clipPath>
<clipPath id="clip2_219_53">
<rect width="80" height="80" fill="white" transform="translate(271 338)"/>
</clipPath>
</defs>
</svg>
