<svg width="60" height="60" viewBox="0 0 60 60" fill="none" xmlns="http://www.w3.org/2000/svg">
<g clip-path="url(#clip0_183_2599)">
<rect x="9.54541" y="15" width="40.9091" height="30" fill="white"/>
<path d="M59.7063 31.7867L56.1699 26.2085L58.2675 19.9483C58.5515 19.0938 58.1977 18.1556 57.4177 17.7086L51.6953 14.4097L50.643 7.89099C50.4963 7.00165 49.7466 6.33814 48.848 6.30089L42.2478 6.04247L38.2877 0.757663C37.7476 0.0359499 36.7698 -0.203845 35.9619 0.184949L29.9996 3.02058L24.035 0.182621C23.2248 -0.201517 22.2517 0.038278 21.7092 0.757663L17.7491 6.04247L11.1489 6.30089C10.2526 6.33581 9.50063 6.99932 9.35628 7.88866L8.30398 14.4074L2.58149 17.7063C1.80157 18.1533 1.44537 19.0915 1.7294 19.9459L3.82703 26.2062L0.29296 31.7867C-0.188958 32.548 -0.0655689 33.5421 0.583973 34.166L5.34961 38.7361L4.81415 45.3153C4.74197 46.2163 5.31003 47.0381 6.17376 47.2896L12.5179 49.1171L15.0997 55.1958C15.4536 56.0223 16.3406 56.5019 17.2206 56.311L23.6928 54.984L28.8006 59.1676C29.1475 59.4493 29.5736 59.5959 29.9996 59.5959C30.4257 59.5959 30.8494 59.4493 31.1986 59.1676L36.3065 54.984L42.7786 56.311C43.6563 56.4972 44.548 56.0246 44.8995 55.1958L47.4814 49.1171L53.8255 47.2896C54.6892 47.0405 55.2573 46.2163 55.1851 45.3153L54.6496 38.7361L59.4153 34.166C60.0648 33.5421 60.1882 32.548 59.7063 31.7867ZM43.6819 22.6815L30.4326 42.5309C29.9321 43.2712 29.1568 43.7671 28.3862 43.7671C27.618 43.7671 26.7589 43.3364 26.2118 42.787L16.485 32.9042C15.8214 32.229 15.8214 31.1348 16.485 30.4597L18.8852 28.0152C19.5487 27.3493 20.6267 27.3493 21.2855 28.0152L27.6156 34.4454L38.0549 18.8052C38.5787 18.0159 39.6426 17.8157 40.4156 18.3488L43.2303 20.2835C44.0055 20.819 44.2057 21.8969 43.6819 22.6815Z" fill="#2C5FAC"/>
</g>
<defs>
<clipPath id="clip0_183_2599">
<rect width="60" height="60" fill="white"/>
</clipPath>
</defs>
</svg>
