<svg width="160" height="160" viewBox="0 0 160 160" fill="none" xmlns="http://www.w3.org/2000/svg">
<path d="M83.8977 19.2768L87.8977 24.8C89.3761 26.8352 92.1729 27.3984 94.3169 26.0736L100.128 22.5024C102.918 20.7872 106.573 22.304 107.334 25.4848L108.915 32.1152C109.498 34.5664 111.872 36.1472 114.355 35.7504L121.088 34.6752C124.32 34.1568 127.117 36.9536 126.598 40.1856L125.523 46.9184C125.126 49.4016 126.714 51.776 129.158 52.3584L135.789 53.9392C138.976 54.7008 140.486 58.3488 138.771 61.1392L135.2 66.9504C133.882 69.0944 134.438 71.8912 136.474 73.3696L141.997 77.3696C144.653 79.296 144.653 83.2448 141.997 85.1648L136.474 89.1648C134.438 90.6432 133.882 93.44 135.2 95.584L138.771 101.395C140.486 104.186 138.976 107.84 135.789 108.602L129.158 110.182C126.707 110.771 125.126 113.139 125.523 115.622L126.598 122.355C127.117 125.587 124.32 128.384 121.088 127.866L114.355 126.79C111.872 126.394 109.498 127.981 108.915 130.426L107.334 137.056C106.573 140.243 102.918 141.754 100.128 140.038L94.3169 136.467C92.1729 135.149 89.3761 135.706 87.8977 137.747L83.8977 143.264C81.9777 145.914 78.0225 145.914 76.1025 143.264L72.1025 137.747C70.6241 135.706 67.8273 135.149 65.6833 136.467L59.8721 140.038C57.0817 141.754 53.4273 140.243 52.6657 137.056L51.0849 130.426C50.5025 127.974 48.1281 126.394 45.6449 126.79L38.9121 127.866C35.6737 128.384 32.8833 125.587 33.3953 122.355L34.4705 115.622C34.8673 113.139 33.2801 110.765 30.8353 110.182L24.2049 108.602C21.0177 107.84 19.5073 104.186 21.2225 101.395L24.7937 95.584C26.1121 93.44 25.5553 90.6432 23.5201 89.1648L17.9969 85.1648C15.3409 83.2448 15.3409 79.2896 17.9969 77.3696L23.5201 73.3696C25.5553 71.8912 26.1121 69.0944 24.7937 66.9504L21.2225 61.1392C19.5073 58.3488 21.0177 54.6944 24.2049 53.9392L30.8353 52.3584C33.2865 51.776 34.8673 49.4016 34.4705 46.9184L33.3953 40.1856C32.8769 36.9536 35.6737 34.1568 38.9121 34.6752L45.6449 35.7504C48.1281 36.1472 50.5025 34.56 51.0849 32.1152L52.6657 25.4848C53.4273 22.2976 57.0817 20.7872 59.8721 22.5024L65.6833 26.0736C67.8273 27.392 70.6241 26.8352 72.1025 24.8L76.1025 19.2768C78.0225 16.6272 81.9777 16.6272 83.8977 19.2768Z" fill="#1452B9"/>
<path d="M142.009 77.3824L136.486 73.3824C134.451 71.904 133.894 69.1072 135.213 66.9632L138.784 61.152C140.499 58.3616 138.989 54.7072 135.801 53.952L129.171 52.3712C128.806 52.288 128.473 52.1472 128.153 51.9872C129.357 56.8896 130.009 62.0096 130.009 67.2832C130.009 102.63 101.357 131.283 66.0094 131.283C60.7358 131.283 55.6158 130.63 50.7134 129.427C50.8734 129.747 51.0078 130.086 51.0974 130.451L52.6782 137.082C53.4398 140.269 57.0942 141.779 59.8846 140.064L65.6958 136.493C67.8398 135.174 70.6366 135.731 72.115 137.773L76.115 143.29C78.035 145.939 81.9902 145.939 83.9102 143.29L87.9102 137.773C89.3886 135.731 92.1854 135.174 94.3294 136.493L100.141 140.064C102.931 141.779 106.585 140.269 107.341 137.082L108.921 130.451C109.504 128 111.878 126.419 114.361 126.816L121.094 127.891C124.326 128.41 127.123 125.613 126.605 122.381L125.529 115.648C125.133 113.165 126.72 110.79 129.165 110.208L135.795 108.627C138.982 107.866 140.493 104.218 138.777 101.427L135.206 95.616C133.888 93.472 134.445 90.6752 136.48 89.1968L142.003 85.1968C144.659 83.2768 144.659 79.3216 142.003 77.4016L142.009 77.3824Z" fill="#022E87"/>
<path d="M80.0002 123.283C103.194 123.283 121.997 104.481 121.997 81.2864C121.997 58.0922 103.194 39.2896 80.0002 39.2896C56.806 39.2896 38.0034 58.0922 38.0034 81.2864C38.0034 104.481 56.806 123.283 80.0002 123.283Z" fill="#A5CDFD"/>
<path d="M93.1266 52.416C101.363 52.416 109.018 54.8224 115.501 58.912C108.064 47.136 94.9634 39.2896 80.0002 39.2896C56.8066 39.2896 38.0034 58.0928 38.0034 81.2864C38.0034 96.2495 45.8498 109.35 57.6258 116.787C53.5298 110.304 51.1234 102.65 51.1234 94.4128C51.1234 71.2192 69.9266 52.416 93.1202 52.416H93.1266Z" fill="#72ACF1"/>
<path d="M79.9999 123.29C91.8591 123.29 102.547 118.355 110.182 110.451V100.102C110.182 95.8848 107.334 92.192 103.251 91.1168L92.4927 88.2944H67.4943L56.7359 91.1232C52.6527 92.1984 49.8047 95.8848 49.8047 100.102V110.451C57.4399 118.355 68.1343 123.29 79.9935 123.29H79.9999Z" fill="#E7F2FC"/>
<path d="M80.0002 96.0192C80.0002 96.0192 92.4226 93.3376 92.4994 88.288C89.869 86.9376 87.8914 84.48 87.3346 81.5232C87.2514 81.0944 87.1874 78.3424 87.1426 77.9264L72.8386 77.9392C72.781 78.4128 72.7106 81.2352 72.6082 81.7472C72.045 84.6464 70.0994 87.0144 67.501 88.288C67.6162 93.3184 80.0002 96.0192 80.0002 96.0192Z" fill="#F2C1BD"/>
<path d="M61.8881 103.117C61.3313 103.117 60.8833 103.565 60.8833 104.122V118.65C61.5425 118.989 62.2145 119.315 62.8929 119.622V104.122C62.8929 103.565 62.4449 103.117 61.8881 103.117Z" fill="#72ACF1"/>
<path d="M98.1186 103.117C97.5618 103.117 97.1138 103.565 97.1138 104.122V119.616C97.7986 119.309 98.4642 118.989 99.1234 118.65V104.122C99.1234 103.565 98.6754 103.117 98.1186 103.117Z" fill="#72ACF1"/>
<path d="M80.0002 52.5248C72.9666 52.5248 67.2578 59.6736 67.2578 68.4928C67.2578 77.312 72.9602 84.4608 80.0002 84.4608C87.0402 84.4608 92.7362 77.312 92.7362 68.4928C92.7362 59.6736 87.0338 52.5248 80.0002 52.5248Z" fill="#FDD3CF"/>
<path d="M67.4558 66.2144C67.4558 66.2144 64.339 62.2272 66.3102 54.6624C68.3454 46.8416 74.323 48.288 74.323 48.288C74.323 48.288 76.2622 46.2336 80.8062 46.2336C86.4318 46.2336 91.2958 47.5712 93.5166 52.9984C95.7438 58.4192 92.755 66.2208 92.755 66.2208C92.755 66.2208 90.8478 59.3728 84.6206 57.344C84.6206 57.344 82.2078 60.0256 74.8926 60.0256C67.5774 60.0256 67.4558 66.2208 67.4558 66.2208V66.2144Z" fill="#022E87"/>
<path d="M93.4529 64.544C92.0961 64.256 90.2977 66.0416 89.8369 68.1344C89.3761 70.2272 90.1057 72.1536 91.4625 72.4416C92.8193 72.7296 94.4769 71.3216 94.9377 69.2288C95.3985 67.136 94.8097 64.832 93.4529 64.544Z" fill="#FDD3CF"/>
<path d="M66.541 64.544C67.8978 64.256 69.6962 66.0416 70.157 68.1344C70.6178 70.2272 69.8882 72.1536 68.5314 72.4416C67.1746 72.7296 65.517 71.3216 65.0562 69.2288C64.5954 67.136 65.1842 64.832 66.541 64.544Z" fill="#FDD3CF"/>
<path d="M114.003 145.28C130.57 145.28 144 131.85 144 115.283C144 98.7164 130.57 85.2864 114.003 85.2864C97.4364 85.2864 84.0063 98.7164 84.0063 115.283C84.0063 131.85 97.4364 145.28 114.003 145.28Z" fill="#F89C04"/>
<path d="M134.144 93.1008C136.589 97.44 137.997 102.445 137.997 107.782C137.997 124.352 124.563 137.779 108 137.779C100.237 137.779 93.1842 134.803 87.853 129.965C92.9922 139.104 102.771 145.28 113.997 145.28C130.567 145.28 143.994 131.846 143.994 115.283C143.994 106.483 140.179 98.5856 134.138 93.1008H134.144Z" fill="#FB7600"/>
<path d="M133.523 110.266L128.39 105.133C127.565 104.307 126.227 104.307 125.401 105.133L112.832 117.651C112.006 118.477 110.669 118.47 109.843 117.651L103.456 111.264C103.04 110.848 102.374 110.848 101.958 111.264L96.0831 117.139C95.2575 117.965 95.2575 119.302 96.0831 120.134L109.843 133.894C110.669 134.72 112.006 134.72 112.838 133.894L133.523 113.261C134.349 112.435 134.355 111.091 133.523 110.266Z" fill="#E7F2FC"/>
<path d="M109.843 126.758L98.1567 115.066L96.0831 117.139C95.2575 117.965 95.2575 119.302 96.0831 120.134L109.843 133.894C110.669 134.72 112.006 134.72 112.838 133.894L133.523 113.261C134.349 112.435 134.355 111.091 133.523 110.266L131.449 108.192L112.832 126.758C112.006 127.584 110.669 127.584 109.837 126.758H109.843Z" fill="white"/>
<path d="M130.003 27.2896C132.213 27.2896 134.003 25.4987 134.003 23.2896C134.003 21.0804 132.213 19.2896 130.003 19.2896C127.794 19.2896 126.003 21.0804 126.003 23.2896C126.003 25.4987 127.794 27.2896 130.003 27.2896Z" fill="#E7F2FC"/>
<path d="M130.003 28.7872C126.969 28.7872 124.505 26.3168 124.505 23.2896C124.505 20.2624 126.969 17.792 130.003 17.792C133.037 17.792 135.501 20.256 135.501 23.2896C135.501 26.3232 133.037 28.7872 130.003 28.7872ZM130.003 20.7872C128.627 20.7872 127.501 21.9072 127.501 23.2896C127.501 24.672 128.621 25.792 130.003 25.792C131.385 25.792 132.505 24.672 132.505 23.2896C132.505 21.9072 131.385 20.7872 130.003 20.7872Z" fill="#1452B9"/>
<path d="M29.9966 29.2864C32.2057 29.2864 33.9966 27.4955 33.9966 25.2864C33.9966 23.0772 32.2057 21.2864 29.9966 21.2864C27.7874 21.2864 25.9966 23.0772 25.9966 25.2864C25.9966 27.4955 27.7874 29.2864 29.9966 29.2864Z" fill="#E7F2FC"/>
<path d="M29.9966 30.784C26.963 30.784 24.499 28.3136 24.499 25.2864C24.499 22.2592 26.963 19.7888 29.9966 19.7888C33.0302 19.7888 35.4942 22.2528 35.4942 25.2864C35.4942 28.32 33.0302 30.784 29.9966 30.784ZM29.9966 22.784C28.6206 22.784 27.4942 23.904 27.4942 25.2864C27.4942 26.6688 28.6142 27.7888 29.9966 27.7888C31.379 27.7888 32.499 26.6688 32.499 25.2864C32.499 23.904 31.379 22.784 29.9966 22.784Z" fill="#1452B9"/>
<path d="M37.9966 143.296C40.2057 143.296 41.9966 141.505 41.9966 139.296C41.9966 137.087 40.2057 135.296 37.9966 135.296C35.7874 135.296 33.9966 137.087 33.9966 139.296C33.9966 141.505 35.7874 143.296 37.9966 143.296Z" fill="#E7F2FC"/>
<path d="M37.9966 144.794C34.963 144.794 32.499 142.33 32.499 139.296C32.499 136.262 34.963 133.798 37.9966 133.798C41.0302 133.798 43.4942 136.262 43.4942 139.296C43.4942 142.33 41.0302 144.794 37.9966 144.794ZM37.9966 136.794C36.6206 136.794 35.4942 137.914 35.4942 139.296C35.4942 140.678 36.6142 141.798 37.9966 141.798C39.379 141.798 40.499 140.678 40.499 139.296C40.499 137.914 39.379 136.794 37.9966 136.794Z" fill="#1452B9"/>
<path d="M21.9966 125.293C24.2057 125.293 25.9966 123.502 25.9966 121.293C25.9966 119.084 24.2057 117.293 21.9966 117.293C19.7874 117.293 17.9966 119.084 17.9966 121.293C17.9966 123.502 19.7874 125.293 21.9966 125.293Z" fill="#E7F2FC"/>
<path d="M21.9966 126.79C18.963 126.79 16.499 124.326 16.499 121.293C16.499 118.259 18.963 115.795 21.9966 115.795C25.0302 115.795 27.4942 118.266 27.4942 121.293C27.4942 124.32 25.0302 126.79 21.9966 126.79ZM21.9966 118.79C20.6206 118.79 19.4942 119.91 19.4942 121.293C19.4942 122.675 20.6142 123.795 21.9966 123.795C23.379 123.795 24.499 122.675 24.499 121.293C24.499 119.91 23.379 118.79 21.9966 118.79Z" fill="#1452B9"/>
<path d="M138.003 45.2864C140.213 45.2864 142.003 43.4955 142.003 41.2864C142.003 39.0772 140.213 37.2864 138.003 37.2864C135.794 37.2864 134.003 39.0772 134.003 41.2864C134.003 43.4955 135.794 45.2864 138.003 45.2864Z" fill="#E7F2FC"/>
<path d="M138.003 46.784C134.969 46.784 132.505 44.32 132.505 41.2864C132.505 38.2528 134.969 35.7888 138.003 35.7888C141.037 35.7888 143.501 38.2528 143.501 41.2864C143.501 44.32 141.037 46.784 138.003 46.784ZM138.003 38.784C136.627 38.784 135.501 39.904 135.501 41.2864C135.501 42.6688 136.621 43.7888 138.003 43.7888C139.385 43.7888 140.505 42.6688 140.505 41.2864C140.505 39.904 139.385 38.784 138.003 38.784Z" fill="#1452B9"/>
</svg>
