<svg width="156" height="128" viewBox="0 0 156 128" fill="none" xmlns="http://www.w3.org/2000/svg">
<rect x="0.814453" width="128" height="128" rx="64" fill="#2C5FAC"/>
<g clip-path="url(#clip0_202_351)">
<path d="M154.196 112H149.139C148.14 112 147.335 111.187 147.335 110.177C147.335 109.168 148.14 108.355 149.139 108.355H154.196C155.195 108.355 156 109.168 156 110.177C156 111.187 155.195 112 154.196 112Z" fill="#1C1C1C"/>
<path d="M143.259 112H14.4429C13.4438 112 12.6392 111.187 12.6392 110.177C12.6392 109.168 13.4438 108.355 14.4429 108.355H143.259C144.258 108.355 145.063 109.168 145.063 110.177C145.063 111.187 144.258 112 143.259 112Z" fill="#1C1C1C"/>
<path d="M8.80197 112H6.80372C5.8046 112 5 111.187 5 110.177C5 109.168 5.8046 108.355 6.80372 108.355H8.80197C9.80109 108.355 10.6057 109.168 10.6057 110.177C10.6057 111.187 9.80109 112 8.80197 112Z" fill="#1C1C1C"/>
<path d="M126.574 103.209H19.854V110.177H126.574V103.209Z" fill="white"/>
<path d="M92.1356 103.209H119.324V44.2459C119.324 40.6992 116.477 37.8225 112.967 37.8225H32.4271C28.9169 37.8225 26.0698 40.6992 26.0698 44.2459V103.209H37.7145" fill="white"/>
<path d="M126.574 112H19.854C18.8549 112 18.0503 111.187 18.0503 110.177V103.209C18.0503 102.2 18.8549 101.387 19.854 101.387H44.3016C45.3007 101.387 46.1053 102.2 46.1053 103.209C46.1053 104.219 45.3007 105.032 44.3016 105.032H21.6577V108.355H124.771V105.032H55.5837C54.5845 105.032 53.7799 104.219 53.7799 103.209C53.7799 102.2 54.5845 101.387 55.5837 101.387H126.574C127.573 101.387 128.378 102.2 128.378 103.209V110.177C128.378 111.187 127.573 112 126.574 112Z" fill="#1C1C1C"/>
<path d="M50.4641 105.032H49.9336C48.9345 105.032 48.1299 104.219 48.1299 103.209C48.1299 102.2 48.9345 101.387 49.9336 101.387H50.4641C51.4632 101.387 52.2678 102.2 52.2678 103.209C52.2678 104.219 51.4632 105.032 50.4641 105.032Z" fill="#1C1C1C"/>
<path d="M72.6924 39.645H70.3936C69.3944 39.645 68.5898 38.832 68.5898 37.8225C68.5898 36.813 69.3944 36 70.3936 36H72.6924C73.6916 36 74.4962 36.813 74.4962 37.8225C74.4962 38.832 73.6916 39.645 72.6924 39.645Z" fill="#1C1C1C"/>
<path d="M119.315 105.032H107.432C106.433 105.032 105.628 104.219 105.628 103.209C105.628 102.2 106.433 101.387 107.432 101.387H117.512V44.2459C117.512 41.7087 115.469 39.645 112.958 39.645H79.3594C78.3603 39.645 77.5557 38.832 77.5557 37.8225C77.5557 36.813 78.3603 36 79.3594 36H112.958C117.459 36 121.119 39.6986 121.119 44.2459V103.209C121.119 104.219 120.315 105.032 119.315 105.032Z" fill="#1C1C1C"/>
<path d="M33.2494 105.032H26.0698C25.0707 105.032 24.2661 104.219 24.2661 103.209V44.2459C24.2661 39.6986 27.9266 36 32.4271 36H57.7057C58.7049 36 59.5095 36.813 59.5095 37.8225C59.5095 38.832 58.7049 39.645 57.7057 39.645H32.4271C29.916 39.645 27.8736 41.7087 27.8736 44.2459V101.387H33.2494C34.2485 101.387 35.0531 102.2 35.0531 103.209C35.0531 104.219 34.2485 105.032 33.2494 105.032Z" fill="#1C1C1C"/>
<path d="M64.16 39.645H64.0274C63.0282 39.645 62.2236 38.832 62.2236 37.8225C62.2236 36.813 63.0282 36 64.0274 36H64.16C65.1591 36 65.9637 36.813 65.9637 37.8225C65.9637 38.832 65.1591 39.645 64.16 39.645Z" fill="#1C1C1C"/>
<path d="M114.983 46.4347V101.02H30.3847V46.4347C30.3847 45.3001 31.2954 44.3799 32.4183 44.3799L112.958 44.3799C114.081 44.3799 114.992 45.3001 114.992 46.4347H114.983Z" fill="#A3D4FF"/>
<path d="M48.0153 86.9764C50.8329 86.9764 53.117 84.6685 53.117 81.8216C53.117 78.9746 50.8329 76.6667 48.0153 76.6667C45.1977 76.6667 42.9136 78.9746 42.9136 81.8216C42.9136 84.6685 45.1977 86.9764 48.0153 86.9764Z" fill="#2B5185"/>
<path d="M48.0153 88.7989C44.2133 88.7989 41.1099 85.672 41.1099 81.8216C41.1099 77.9711 44.2045 74.8442 48.0153 74.8442C51.8261 74.8442 54.9207 77.9711 54.9207 81.8216C54.9207 85.672 51.8261 88.7989 48.0153 88.7989ZM48.0153 78.4892C46.2027 78.4892 44.7173 79.9812 44.7173 81.8216C44.7173 83.6619 46.1939 85.1539 48.0153 85.1539C49.8367 85.1539 51.3133 83.6619 51.3133 81.8216C51.3133 79.9812 49.8367 78.4892 48.0153 78.4892Z" fill="#2B5185"/>
<path d="M51.711 80.0974C51.2512 80.0974 50.7914 79.9187 50.4377 79.5613C49.7304 78.8466 49.7304 77.6942 50.4377 76.9884L62.4184 64.8831C63.1257 64.1684 64.2663 64.1684 64.9648 64.8831C65.6721 65.5978 65.6721 66.7502 64.9648 67.456L52.9842 79.5613C52.6305 79.9187 52.1707 80.0974 51.711 80.0974Z" fill="#2B5185"/>
<path d="M75.3098 77.3726C74.85 77.3726 74.3902 77.1939 74.0365 76.8365L64.7527 67.456C64.0453 66.7413 64.0453 65.5888 64.7527 64.8831C65.46 64.1684 66.6006 64.1684 67.308 64.8831L76.5918 74.2636C77.2992 74.9783 77.2992 76.1308 76.5918 76.8365C76.2382 77.1939 75.7784 77.3726 75.3186 77.3726H75.3098Z" fill="#2B5185"/>
<path d="M65.5128 69.3052C68.3304 69.3052 70.6146 66.9973 70.6146 64.1504C70.6146 61.3035 68.3304 58.9956 65.5128 58.9956C62.6953 58.9956 60.4111 61.3035 60.4111 64.1504C60.4111 66.9973 62.6953 69.3052 65.5128 69.3052Z" fill="#2B5185"/>
<path d="M65.5129 71.1188C61.7109 71.1188 58.6074 67.992 58.6074 64.1415C58.6074 60.291 61.702 57.1642 65.5129 57.1642C69.3237 57.1642 72.4183 60.291 72.4183 64.1415C72.4183 67.992 69.3237 71.1188 65.5129 71.1188ZM65.5129 60.8181C63.7003 60.8181 62.2149 62.3101 62.2149 64.1504C62.2149 65.9908 63.6915 67.4827 65.5129 67.4827C67.3343 67.4827 68.8108 65.9908 68.8108 64.1504C68.8108 62.3101 67.3343 60.8181 65.5129 60.8181Z" fill="#2B5185"/>
<path d="M80.5352 78.4893C80.0754 78.4893 79.6156 78.3106 79.262 77.9532C78.5546 77.2385 78.5546 76.0861 79.262 75.3803L100.305 54.1178C101.013 53.4031 102.153 53.4031 102.852 54.1178C103.559 54.8325 103.559 55.985 102.852 56.6908L81.8084 77.9532C81.4547 78.3106 80.9949 78.4893 80.5352 78.4893Z" fill="#2B5185"/>
<path d="M79.0319 82.9561C81.8495 82.9561 84.1336 80.6482 84.1336 77.8013C84.1336 74.9544 81.8495 72.6465 79.0319 72.6465C76.2143 72.6465 73.9302 74.9544 73.9302 77.8013C73.9302 80.6482 76.2143 82.9561 79.0319 82.9561Z" fill="#2B5185"/>
<path d="M79.0319 84.7786C75.2299 84.7786 72.1265 81.6518 72.1265 77.8013C72.1265 73.9508 75.2211 70.824 79.0319 70.824C82.8427 70.824 85.9373 73.9508 85.9373 77.8013C85.9373 81.6518 82.8427 84.7786 79.0319 84.7786ZM79.0319 74.4779C77.2193 74.4779 75.7339 75.9699 75.7339 77.8102C75.7339 79.6506 77.2105 81.1425 79.0319 81.1425C80.8533 81.1425 82.3299 79.6506 82.3299 77.8102C82.3299 75.9699 80.8533 74.4779 79.0319 74.4779Z" fill="#2B5185"/>
<path d="M101.579 57.0838H95.9111C94.912 57.0838 94.1074 56.2709 94.1074 55.2613C94.1074 54.2518 94.912 53.4388 95.9111 53.4388H101.579C102.578 53.4388 103.382 54.2518 103.382 55.2613C103.382 56.2709 102.578 57.0838 101.579 57.0838Z" fill="#2B5185"/>
<path d="M101.579 62.8193C100.58 62.8193 99.7749 62.0064 99.7749 60.9968V55.2703C99.7749 54.2607 100.58 53.4478 101.579 53.4478C102.578 53.4478 103.382 54.2607 103.382 55.2703V60.9968C103.382 62.0064 102.578 62.8193 101.579 62.8193Z" fill="#2B5185"/>
<path d="M107.423 110.187H135.46V102.566H107.423V110.187Z" fill="white"/>
<path d="M135.469 112H107.432C106.433 112 105.628 111.187 105.628 110.178V102.557C105.628 101.547 106.433 100.734 107.432 100.734H135.469C136.469 100.734 137.273 101.547 137.273 102.557V110.178C137.273 111.187 136.469 112 135.469 112ZM109.236 108.355H133.666V104.379H109.236V108.355Z" fill="#1C1C1C"/>
<path d="M107.423 102.575H135.46V94.9543H107.423V102.575Z" fill="white"/>
<path d="M135.469 104.406H107.432C106.433 104.406 105.628 103.593 105.628 102.584V94.9632C105.628 93.9537 106.433 93.1407 107.432 93.1407H135.469C136.469 93.1407 137.273 93.9537 137.273 94.9632V102.584C137.273 103.593 136.469 104.406 135.469 104.406ZM109.236 100.761H133.666V96.7857H109.236V100.761Z" fill="#1C1C1C"/>
<path d="M113.109 94.9543H141.146V87.3338H113.109V94.9543Z" fill="white"/>
<path d="M141.146 96.7858H113.109C112.11 96.7858 111.305 95.9728 111.305 94.9633V87.3428C111.305 86.3332 112.11 85.5203 113.109 85.5203H141.146C142.145 85.5203 142.95 86.3332 142.95 87.3428V94.9633C142.95 95.9728 142.145 96.7858 141.146 96.7858ZM114.921 93.1408H139.351V89.1653H114.921V93.1408Z" fill="#1C1C1C"/>
<g opacity="0.3">
<path d="M133.648 96.7947H111.332V98.9835H133.648V96.7947Z" fill="#AFBC66"/>
</g>
<path d="M93.3012 110.183L104.324 84.135L97.389 81.1391L86.3664 107.187L93.3012 110.183Z" fill="white"/>
<path d="M93.3031 112C93.0644 112 92.8168 111.955 92.5957 111.857L85.6638 108.864C85.2217 108.677 84.8769 108.319 84.7 107.864C84.5232 107.417 84.532 106.917 84.7177 106.47L89.2182 95.8387C89.6072 94.9096 90.6682 94.4897 91.5878 94.8828C92.5073 95.2759 92.9317 96.348 92.5339 97.2771L88.7407 106.229L92.357 107.792L101.959 85.1003L98.3429 83.5369L97.3084 85.9847C96.9194 86.9139 95.8584 87.3337 94.9388 86.9407C94.0193 86.5476 93.5949 85.4755 93.9928 84.5464L95.7346 80.4279C95.9203 79.9812 96.2739 79.6328 96.7249 79.4541C97.1669 79.2754 97.6621 79.2754 98.1042 79.472L105.036 82.4648C105.956 82.8579 106.38 83.93 105.982 84.8591L94.9653 110.901C94.7797 111.348 94.426 111.696 93.9751 111.875C93.7629 111.964 93.533 112.009 93.3031 112.009V112Z" fill="#2B5185"/>
<path d="M93.1527 92.971C92.914 92.971 92.6752 92.9264 92.4453 92.8192C91.5258 92.4261 91.1014 91.354 91.4904 90.4249L91.6054 90.1479C91.9944 89.2188 93.0554 88.79 93.975 89.1831C94.8945 89.5762 95.3189 90.6482 94.9299 91.5774L94.8149 91.8543C94.5232 92.5511 93.86 92.9621 93.1527 92.9621V92.971Z" fill="#2B5185"/>
<path d="M107.424 87.3337H135.461V79.7132H107.424V87.3337Z" fill="white"/>
<path d="M135.469 89.1652H107.432C106.433 89.1652 105.628 88.3522 105.628 87.3427V79.7222C105.628 78.7126 106.433 77.8997 107.432 77.8997H111.155C112.154 77.8997 112.958 78.7126 112.958 79.7222C112.958 80.7317 112.154 81.5447 111.155 81.5447H109.236V85.5202H133.666V81.5447H117.193C116.194 81.5447 115.39 80.7317 115.39 79.7222C115.39 78.7126 116.194 77.8997 117.193 77.8997H135.469C136.469 77.8997 137.273 78.7126 137.273 79.7222V87.3427C137.273 88.3522 136.469 89.1652 135.469 89.1652Z" fill="#1C1C1C"/>
<g opacity="0.3">
<path d="M137.15 89.1742H114.904V91.363H137.15V89.1742Z" fill="#AFBC66"/>
</g>
<g opacity="0.3">
<path d="M133.648 104.415H109.236V106.604H133.648V104.415Z" fill="#AFBC66"/>
</g>
</g>
<defs>
<clipPath id="clip0_202_351">
<rect width="151" height="76" fill="white" transform="translate(5 36)"/>
</clipPath>
</defs>
</svg>
