<svg width="147" height="132" viewBox="0 0 147 132" fill="none" xmlns="http://www.w3.org/2000/svg">
<rect y="0.14209" width="131.716" height="131.716" rx="65.858" fill="#2C5FAC"/>
<g clip-path="url(#clip0_202_350)">
<path d="M92.1187 71.8292H77.666V74.5377H92.1187V71.8292Z" fill="#A3D4FF"/>
<path d="M92.1187 78.1587H77.666V80.8672H92.1187V78.1587Z" fill="#A3D4FF"/>
<path d="M92.1187 84.4785H77.666V87.187H92.1187V84.4785Z" fill="#A3D4FF"/>
<path d="M92.1187 90.8081H77.666V93.5166H92.1187V90.8081Z" fill="#A3D4FF"/>
<path d="M118.764 90.2062L115.602 88.0899L113.39 76.2948C113.119 74.8289 111.673 73.6252 110.18 73.6252H108.375L107.347 68.1402C106.979 66.189 105.058 64.5872 103.07 64.5872H77.666V68.1985H95.7269V100.739H88.1708C87.4239 98.6326 85.4355 97.1279 83.0784 97.1279C80.0909 97.1279 77.6562 99.5549 77.6562 102.555C77.6562 105.554 80.0812 107.981 83.0784 107.981C85.4355 107.981 87.4142 106.467 88.1708 104.37H105.087C105.834 106.477 107.823 107.981 110.18 107.981C112.537 107.981 114.515 106.467 115.272 104.37H121.024V94.4291C121.024 92.9341 120.015 91.0411 118.774 90.2159L118.764 90.2062ZM83.0881 104.37C82.0891 104.37 81.284 103.564 81.284 102.564C81.284 101.564 82.0891 100.759 83.0881 100.759C84.0872 100.759 84.8923 101.564 84.8923 102.564C84.8923 103.564 84.0872 104.37 83.0881 104.37ZM99.3449 68.2082H103.07C103.312 68.2082 103.749 68.5674 103.797 68.8101L104.699 73.6349H99.3449V68.2082ZM99.3449 77.2462H109.898L111.935 88.0899H99.3546V77.2462H99.3449ZM110.18 104.37C109.18 104.37 108.375 103.564 108.375 102.564C108.375 101.564 109.18 100.759 110.18 100.759C111.179 100.759 111.984 101.564 111.984 102.564C111.984 103.564 111.179 104.37 110.18 104.37ZM117.406 100.759H115.272C114.525 98.652 112.537 97.1473 110.18 97.1473C107.823 97.1473 105.844 98.6617 105.087 100.759H99.3352V91.7206H114.496L116.746 93.2156C117.008 93.4098 117.377 94.1088 117.396 94.4291V100.759H117.406Z" fill="#1C1C1C"/>
<path d="M74.7269 49.8118H65.8613V104.593H74.7269V49.8118Z" fill="white"/>
<path d="M74.7267 106.35H65.8611C64.8912 106.35 64.1055 105.564 64.1055 104.593V49.8118C64.1055 48.841 64.8912 48.0547 65.8611 48.0547H74.7267C75.6967 48.0547 76.4824 48.841 76.4824 49.8118V104.593C76.4824 105.564 75.6967 106.35 74.7267 106.35ZM67.6168 102.836H72.9711V51.5689H67.6168V102.836Z" fill="#1C1C1C"/>
<path d="M58.9843 33.7938H21.3298C17.5316 33.7938 14.4526 36.8754 14.4526 40.6767V107.36C14.4526 111.161 17.5316 114.243 21.3298 114.243H58.9843C62.7824 114.243 65.8614 111.161 65.8614 107.36V40.6767C65.8614 36.8754 62.7824 33.7938 58.9843 33.7938Z" fill="white"/>
<path d="M59.7601 116H20.5536C16.2178 116 12.6968 112.476 12.6968 108.137V66.5384C12.6968 65.5676 13.4825 64.7813 14.4524 64.7813C15.4224 64.7813 16.2081 65.5676 16.2081 66.5384V108.137C16.2081 110.534 18.1577 112.486 20.5536 112.486H59.7601C62.1559 112.486 64.1055 110.534 64.1055 108.137V39.8903C64.1055 37.4925 62.1559 35.5412 59.7601 35.5412H20.5536C18.1577 35.5412 16.2081 37.4925 16.2081 39.8903V45.6083C16.2081 46.5791 15.4224 47.3654 14.4524 47.3654C13.4825 47.3654 12.6968 46.5791 12.6968 45.6083V39.8903C12.6968 35.5606 16.2178 32.027 20.5536 32.027H59.7601C64.0959 32.027 67.6169 35.5509 67.6169 39.8903V108.127C67.6169 112.466 64.0959 115.99 59.7601 115.99V116Z" fill="#1C1C1C"/>
<path d="M14.4524 62.4029C13.4825 62.4029 12.6968 61.6166 12.6968 60.6458V58.18C12.6968 57.2092 13.4825 56.4229 14.4524 56.4229C15.4224 56.4229 16.2081 57.2092 16.2081 58.18V60.6458C16.2081 61.6166 15.4224 62.4029 14.4524 62.4029Z" fill="#1C1C1C"/>
<path d="M14.4524 53.8212C13.4825 53.8212 12.6968 53.0348 12.6968 52.0641V51.3748C12.6968 50.404 13.4825 49.6177 14.4524 49.6177C15.4224 49.6177 16.2081 50.404 16.2081 51.3748V52.0641C16.2081 53.0348 15.4224 53.8212 14.4524 53.8212Z" fill="#1C1C1C"/>
<path d="M56.666 49.8119H23.6577V63.7232H56.666V49.8119Z" fill="white"/>
<path d="M41.922 51.5689H41.6893C40.7193 51.5689 39.9336 50.7826 39.9336 49.8118C39.9336 48.841 40.7193 48.0547 41.6893 48.0547H41.922C42.892 48.0547 43.6777 48.841 43.6777 49.8118C43.6777 50.7826 42.892 51.5689 41.922 51.5689Z" fill="#A3D4FF"/>
<g opacity="0.3">
<path d="M51.7578 11.1066H28.556C27.5863 11.1066 26.8003 11.8933 26.8003 12.8637V43.5114C26.8003 44.4818 27.5863 45.2685 28.556 45.2685H51.7578C52.7274 45.2685 53.5135 44.4818 53.5135 43.5114V12.8637C53.5135 11.8933 52.7274 11.1066 51.7578 11.1066Z" fill="#AFBC66"/>
</g>
<path d="M56.6658 65.4803H23.6575C22.6875 65.4803 21.9019 64.694 21.9019 63.7232V49.8118C21.9019 48.841 22.6875 48.0547 23.6575 48.0547H34.8025C35.7725 48.0547 36.5582 48.841 36.5582 49.8118C36.5582 50.7826 35.7725 51.5689 34.8025 51.5689H25.4132V61.966H54.9102V51.5689H48.0815C47.1116 51.5689 46.3259 50.7826 46.3259 49.8118C46.3259 48.841 47.1116 48.0547 48.0815 48.0547H56.6658C57.6358 48.0547 58.4215 48.841 58.4215 49.8118V63.7232C58.4215 64.694 57.6358 65.4803 56.6658 65.4803Z" fill="#A3D4FF"/>
<path d="M51.7575 10.7571H28.5557V41.4048H51.7575V10.7571Z" fill="white"/>
<path d="M51.7578 43.1619H28.556C27.586 43.1619 26.8003 42.3756 26.8003 41.4048V10.7571C26.8003 9.78634 27.586 9 28.556 9H35.0936C36.0636 9 36.8493 9.78634 36.8493 10.7571C36.8493 11.7279 36.0636 12.5142 35.0936 12.5142H30.3116V39.6477H50.0021V12.5142H46.7721C45.8021 12.5142 45.0165 11.7279 45.0165 10.7571C45.0165 9.78634 45.8021 9 46.7721 9H51.7578C52.7278 9 53.5135 9.78634 53.5135 10.7571V41.4048C53.5135 42.3756 52.7278 43.1619 51.7578 43.1619Z" fill="#1C1C1C"/>
<path d="M41.0396 12.5142H40.7098C39.7398 12.5142 38.9541 11.7279 38.9541 10.7571C38.9541 9.78634 39.7398 9 40.7098 9H41.0396C42.0095 9 42.7952 9.78634 42.7952 10.7571C42.7952 11.7279 42.0095 12.5142 41.0396 12.5142Z" fill="#1C1C1C"/>
<path d="M45.2202 35.5316H35.1033C34.1333 35.5316 33.3477 34.7452 33.3477 33.7745C33.3477 32.8037 34.1333 32.0173 35.1033 32.0173H45.2202C46.1901 32.0173 46.9758 32.8037 46.9758 33.7745C46.9758 34.7452 46.1901 35.5316 45.2202 35.5316Z" fill="#1C1C1C"/>
<path d="M45.2202 27.9012H35.1033C34.1333 27.9012 33.3477 27.1149 33.3477 26.1441C33.3477 25.1733 34.1333 24.387 35.1033 24.387H45.2202C46.1901 24.387 46.9758 25.1733 46.9758 26.1441C46.9758 27.1149 46.1901 27.9012 45.2202 27.9012Z" fill="#1C1C1C"/>
<path d="M45.0747 20.2708H34.9578C33.9878 20.2708 33.2021 19.4845 33.2021 18.5137C33.2021 17.5429 33.9878 16.7566 34.9578 16.7566H45.0747C46.0446 16.7566 46.8303 17.5429 46.8303 18.5137C46.8303 19.4845 46.0446 20.2708 45.0747 20.2708Z" fill="#1C1C1C"/>
<path d="M30.7385 71.5575H23.6577V78.6442H30.7385V71.5575Z" fill="white"/>
<path d="M30.7383 80.411H23.6575C22.6875 80.411 21.9019 79.6247 21.9019 78.6539V71.5672C21.9019 70.5964 22.6875 69.8101 23.6575 69.8101H30.7383C31.7083 69.8101 32.494 70.5964 32.494 71.5672V78.6539C32.494 79.6247 31.7083 80.411 30.7383 80.411ZM25.4132 76.8968H28.9827V73.3243H25.4132V76.8968Z" fill="#1C1C1C"/>
<path d="M43.6975 71.5575H36.6167V78.6442H43.6975V71.5575Z" fill="white"/>
<path d="M43.6973 80.411H36.6165C35.6465 80.411 34.8608 79.6247 34.8608 78.6539V71.5672C34.8608 70.5964 35.6465 69.8101 36.6165 69.8101H43.6973C44.6673 69.8101 45.453 70.5964 45.453 71.5672V78.6539C45.453 79.6247 44.6673 80.411 43.6973 80.411ZM38.3722 76.8968H41.9417V73.3243H38.3722V76.8968Z" fill="#1C1C1C"/>
<path d="M56.656 71.5575H49.5752V78.6442H56.656V71.5575Z" fill="white"/>
<path d="M56.6656 80.411H49.5848C48.6148 80.411 47.8291 79.6247 47.8291 78.6539V71.5672C47.8291 70.5964 48.6148 69.8101 49.5848 69.8101H56.6656C57.6356 69.8101 58.4212 70.5964 58.4212 71.5672V78.6539C58.4212 79.6247 57.6356 80.411 56.6656 80.411ZM51.3307 76.8968H54.9002V73.3243H51.3307V76.8968Z" fill="#1C1C1C"/>
<path d="M30.7385 84.5367H23.6577V91.6235H30.7385V84.5367Z" fill="white"/>
<path d="M30.7383 93.3806H23.6575C22.6875 93.3806 21.9019 92.5943 21.9019 91.6235V84.5368C21.9019 83.566 22.6875 82.7797 23.6575 82.7797H30.7383C31.7083 82.7797 32.494 83.566 32.494 84.5368V91.6235C32.494 92.5943 31.7083 93.3806 30.7383 93.3806ZM25.4132 89.8664H28.9827V86.2939H25.4132V89.8664Z" fill="#1C1C1C"/>
<path d="M43.6975 84.5367H36.6167V91.6235H43.6975V84.5367Z" fill="white"/>
<path d="M43.6973 93.3806H36.6165C35.6465 93.3806 34.8608 92.5943 34.8608 91.6235V84.5368C34.8608 83.566 35.6465 82.7797 36.6165 82.7797H43.6973C44.6673 82.7797 45.453 83.566 45.453 84.5368V91.6235C45.453 92.5943 44.6673 93.3806 43.6973 93.3806ZM38.3722 89.8664H41.9417V86.2939H38.3722V89.8664Z" fill="#1C1C1C"/>
<path d="M56.656 84.5367H49.5752V91.6235H56.656V84.5367Z" fill="white"/>
<path d="M56.6656 93.3806H49.5848C48.6148 93.3806 47.8291 92.5943 47.8291 91.6235V84.5368C47.8291 83.566 48.6148 82.7797 49.5848 82.7797H56.6656C57.6356 82.7797 58.4212 83.566 58.4212 84.5368V91.6235C58.4212 92.5943 57.6356 93.3806 56.6656 93.3806ZM51.3307 89.8664H54.9002V86.2939H51.3307V89.8664Z" fill="#1C1C1C"/>
<path d="M30.7385 97.5065H23.6577V104.593H30.7385V97.5065Z" fill="white"/>
<path d="M30.7383 106.35H23.6575C22.6875 106.35 21.9019 105.564 21.9019 104.593V97.5065C21.9019 96.5357 22.6875 95.7494 23.6575 95.7494H30.7383C31.7083 95.7494 32.494 96.5357 32.494 97.5065V104.593C32.494 105.564 31.7083 106.35 30.7383 106.35ZM25.4132 102.836H28.9827V99.2636H25.4132V102.836Z" fill="#1C1C1C"/>
<path d="M43.6975 97.5065H36.6167V104.593H43.6975V97.5065Z" fill="white"/>
<path d="M43.6973 106.35H36.6165C35.6465 106.35 34.8608 105.564 34.8608 104.593V97.5065C34.8608 96.5357 35.6465 95.7494 36.6165 95.7494H43.6973C44.6673 95.7494 45.453 96.5357 45.453 97.5065V104.593C45.453 105.564 44.6673 106.35 43.6973 106.35ZM38.3722 102.836H41.9417V99.2636H38.3722V102.836Z" fill="#1C1C1C"/>
<path d="M56.656 97.5065H49.5752V104.593H56.656V97.5065Z" fill="white"/>
<path d="M56.6656 106.35H49.5848C48.6148 106.35 47.8291 105.564 47.8291 104.593V97.5065C47.8291 96.5357 48.6148 95.7494 49.5848 95.7494H56.6656C57.6356 95.7494 58.4212 96.5357 58.4212 97.5065V104.593C58.4212 105.564 57.6356 106.35 56.6656 106.35ZM51.3307 102.836H54.9002V99.2636H51.3307V102.836Z" fill="#1C1C1C"/>
<path d="M145.244 116H140.326C139.356 116 138.571 115.214 138.571 114.243C138.571 113.272 139.356 112.486 140.326 112.486H145.244C146.214 112.486 147 113.272 147 114.243C147 115.214 146.214 116 145.244 116Z" fill="#1C1C1C"/>
<path d="M134.604 116H9.1956C8.22562 116 7.43994 115.214 7.43994 114.243C7.43994 113.272 8.22562 112.486 9.1956 112.486H134.604C135.574 112.486 136.36 113.272 136.36 114.243C136.36 115.214 135.574 116 134.604 116Z" fill="#1C1C1C"/>
<path d="M3.70531 116H1.75566C0.785681 116 0 115.214 0 114.243C0 113.272 0.785681 112.486 1.75566 112.486H3.70531C4.67529 112.486 5.46097 113.272 5.46097 114.243C5.46097 115.214 4.67529 116 3.70531 116Z" fill="#1C1C1C"/>
<path d="M100.761 79.5082H108.376L109.627 86.294H100.761V79.5082Z" fill="#A3D4FF"/>
</g>
<defs>
<clipPath id="clip0_202_350">
<rect width="147" height="107" fill="white" transform="translate(0 9)"/>
</clipPath>
</defs>
</svg>
