<svg width="160" height="160" viewBox="0 0 160 160" fill="none" xmlns="http://www.w3.org/2000/svg">
<path d="M82.6047 17.2416L86.1695 21.6448C87.1423 22.848 88.8127 23.2256 90.2143 22.5664L95.3343 20.1472C97.2671 19.2384 99.5455 20.3328 100.032 22.4128L101.331 27.9232C101.683 29.4272 103.027 30.496 104.57 30.5088L110.234 30.5472C112.371 30.56 113.946 32.5376 113.485 34.624L112.262 40.16C111.93 41.6704 112.672 43.2128 114.061 43.8912L119.149 46.3872C121.062 47.328 121.626 49.792 120.307 51.4688L116.806 55.9232C115.853 57.1392 115.853 58.8544 116.806 60.0704L120.307 64.5248C121.626 66.2016 121.062 68.672 119.149 69.6064L114.061 72.096C112.672 72.7744 111.93 74.3232 112.262 75.8336L113.485 81.3632C113.946 83.4496 112.365 85.4272 110.234 85.44L104.57 85.4784C103.021 85.4912 101.683 86.5536 101.331 88.064L100.032 93.5808C99.5455 95.6544 97.2607 96.7552 95.3343 95.84L90.2143 93.4208C88.8191 92.7616 87.1487 93.1392 86.1695 94.3424L82.6047 98.7456C81.2607 100.403 78.7327 100.403 77.3887 98.7456L73.8239 94.3424C72.8511 93.1392 71.1807 92.7616 69.7791 93.4208L64.6591 95.84C62.7263 96.7552 60.4479 95.6544 59.9615 93.5808L58.6623 88.064C58.3103 86.56 56.9663 85.4912 55.4239 85.4784L49.7599 85.44C47.6223 85.4272 46.0479 83.4432 46.5087 81.3632L47.7311 75.8336C48.0639 74.3232 47.3215 72.7808 45.9327 72.096L40.8447 69.6064C38.9311 68.6656 38.3679 66.1952 39.6863 64.5248L43.1871 60.0704C44.1407 58.8544 44.1407 57.1392 43.1871 55.9232L39.6863 51.4688C38.3679 49.792 38.9311 47.3216 40.8447 46.3872L45.9327 43.8912C47.3215 43.2064 48.0639 41.664 47.7311 40.16L46.5087 34.624C46.0479 32.5376 47.6287 30.56 49.7599 30.5472L55.4239 30.5088C56.9727 30.496 58.3103 29.4336 58.6623 27.9232L59.9615 22.4128C60.4479 20.3328 62.7327 19.2384 64.6591 20.1472L69.7791 22.5664C71.1743 23.2256 72.8447 22.848 73.8239 21.6448L77.3887 17.2416C78.7327 15.584 81.2607 15.584 82.6047 17.2416Z" fill="#F89C04"/>
<path d="M116.813 60.0704C115.859 58.8544 115.859 57.1392 116.813 55.9232L120.314 51.4688C121.632 49.792 121.069 47.3216 119.155 46.3872L114.067 43.8912C112.679 43.2064 111.936 41.664 112.269 40.16L113.491 34.624C113.952 32.5376 112.371 30.56 110.24 30.5472L106.413 30.5216C107.034 33.3952 107.379 36.3712 107.379 39.4304C107.379 62.624 88.5761 81.4272 65.3826 81.4272C58.9378 81.4272 52.8641 79.936 47.4049 77.344L46.5154 81.3696C46.0546 83.456 47.6354 85.4336 49.7666 85.4464L55.4305 85.4848C56.9793 85.4976 58.3169 86.56 58.6689 88.0704L59.9681 93.5872C60.4545 95.6608 62.7393 96.7616 64.6657 95.8464L69.7857 93.4272C71.1809 92.768 72.8513 93.1456 73.8305 94.3488L77.3953 98.752C78.7393 100.41 81.2673 100.41 82.6113 98.752L86.1761 94.3488C87.1489 93.1456 88.8193 92.768 90.2209 93.4272L95.3409 95.8464C97.2737 96.7616 99.5521 95.6608 100.039 93.5872L101.338 88.0704C101.69 86.5664 103.034 85.4976 104.576 85.4848L110.24 85.4464C112.378 85.4336 113.952 83.4496 113.491 81.3696L112.269 75.84C111.936 74.3296 112.679 72.7872 114.067 72.1024L119.155 69.6128C121.069 68.672 121.632 66.2016 120.314 64.5312L116.813 60.0768V60.0704Z" fill="#FB7600"/>
<path d="M61.1006 78.8928C60.5886 78.8928 60.0766 78.7008 59.6862 78.304C58.9054 77.5232 58.9054 76.256 59.6862 75.4752L97.4846 37.6768C98.2654 36.896 99.5326 36.896 100.313 37.6768C101.094 38.4576 101.094 39.7248 100.313 40.5056L62.515 78.304C62.1246 78.6944 61.6126 78.8928 61.1006 78.8928Z" fill="#E7F2FC"/>
<path d="M92.8321 80.9984C87.2257 80.9984 82.6689 76.4352 82.6689 70.8352C82.6689 65.2352 87.2321 60.672 92.8321 60.672C98.4321 60.672 102.995 65.2352 102.995 70.8352C102.995 76.4352 98.4321 80.9984 92.8321 80.9984ZM92.8321 64.6656C89.4337 64.6656 86.6689 67.4304 86.6689 70.8288C86.6689 74.2272 89.4337 76.992 92.8321 76.992C96.2305 76.992 98.9953 74.2272 98.9953 70.8288C98.9953 67.4304 96.2305 64.6656 92.8321 64.6656Z" fill="#E7F2FC"/>
<path d="M67.1681 55.3345C61.5617 55.3345 56.9985 50.7713 56.9985 45.1713C56.9985 39.5713 61.5617 35.0081 67.1681 35.0081C72.7745 35.0081 77.3313 39.5713 77.3313 45.1713C77.3313 50.7713 72.7681 55.3345 67.1681 55.3345ZM67.1681 39.0017C63.7697 39.0017 60.9985 41.7665 60.9985 45.1649C60.9985 48.5633 63.7633 51.3281 67.1681 51.3281C70.5729 51.3281 73.3313 48.5633 73.3313 45.1649C73.3313 41.7665 70.5665 39.0017 67.1681 39.0017Z" fill="#E7F2FC"/>
<path d="M129.408 52.672L131.13 63.4304L133.811 80.9536L124.269 108.87L118.061 102.656L123.738 77.5168C124.519 67.1936 121.594 58.7072 122.611 55.0656C123.552 51.7056 126.848 51.2064 129.408 52.672Z" fill="#6398DB"/>
<path d="M127.962 74.976C128.147 76.8256 125.075 78.8928 124.32 83.744C124.32 83.744 113.517 104.262 108.16 121.811C108.154 121.837 122.426 125.888 122.426 125.888C126.106 121.011 152.864 98.2144 132.877 47.744C132.858 47.6928 132.839 47.6416 132.826 47.584C132.717 47.2128 131.687 43.9232 129.063 44.5248C124.083 45.6704 126.579 61.3376 127.962 74.9824V74.976Z" fill="#72ACF1"/>
<path d="M132.121 69.9456C132.493 71.7632 132.87 73.6448 133.248 75.584C133.248 75.584 133.254 75.6032 133.261 75.616C134.061 80.2368 133.805 84.8384 132.429 89.6512C131.366 93.3632 129.638 97.1968 127.225 101.248C126.765 102.022 125.766 102.278 124.992 101.811C124.217 101.35 123.968 100.346 124.429 99.5776C129.536 91.0016 131.321 83.5712 130.054 76.2112C129.401 72.9344 128.889 72.7168 127.853 72.2816C126.144 71.5584 124.742 71.4688 123.699 72C122.137 72.7936 121.657 74.816 121.645 74.8352C117.606 89.9456 115.206 92.2304 112.441 94.8736C109.939 97.2608 105.901 103.648 100.55 121.197C100.544 121.222 126.342 128.57 126.342 128.57C130.022 123.693 156.48 101.018 136.793 50.4256C136.774 50.3744 135.597 46.5984 132.979 47.2064C128 48.3584 129.414 56.5952 132.128 69.952L132.121 69.9456Z" fill="#A5CDFD"/>
<path d="M98.6559 121.664L93.3631 141.485C93.0239 142.752 93.9839 144 95.2959 144H123.379C124.23 144 124.986 143.462 125.267 142.662L130.118 128.826C130.515 127.693 129.83 126.464 128.653 126.208L101.011 120.224C99.9679 120 98.9311 120.627 98.6559 121.664Z" fill="#1452B9"/>
<path d="M120.615 132.013C119.021 131.558 117.363 132.48 116.909 134.074C116.455 135.667 117.376 137.325 118.97 137.779C120.563 138.234 122.221 137.312 122.675 135.718C123.13 134.125 122.208 132.467 120.615 132.013Z" fill="#E7F2FC"/>
<path d="M30.5922 52.672L28.8706 63.4304L26.189 80.9536L35.7314 108.87L41.9394 102.656L36.2626 77.5168C35.4818 67.1936 38.4066 58.7072 37.389 55.0656C36.4482 51.7056 33.1522 51.2064 30.5922 52.672Z" fill="#6398DB"/>
<path d="M32.0384 74.976C31.8528 76.8256 34.9248 78.8928 35.68 83.744C35.68 83.744 46.4832 104.262 51.84 121.811C51.8464 121.837 37.5744 125.888 37.5744 125.888C33.8944 121.011 7.13599 98.2144 27.1232 47.744C27.1424 47.6928 27.1616 47.6416 27.1744 47.584C27.2832 47.2128 28.3136 43.9232 30.9376 44.5248C35.9168 45.6704 33.4208 61.3376 32.0384 74.9824V74.976Z" fill="#72ACF1"/>
<path d="M27.8782 69.9456C27.507 71.7632 27.1294 73.6448 26.7518 75.584C26.7518 75.5968 26.7454 75.6032 26.739 75.6096C25.939 80.2304 26.195 84.832 27.571 89.6448C28.6334 93.3568 30.3614 97.1904 32.7742 101.242C33.235 102.016 34.2334 102.272 35.0078 101.805C35.7822 101.344 36.0318 100.339 35.571 99.5712C30.4638 90.9952 28.6782 83.5648 29.9454 76.2048C30.5982 72.928 31.1102 72.7104 32.147 72.2752C33.8558 71.552 35.2574 71.4624 36.3006 71.9936C37.8558 72.7872 38.3422 74.8096 38.355 74.8288C42.3934 89.9392 44.7934 92.224 47.5582 94.8672C50.0606 97.2544 54.099 103.642 59.4494 121.19C59.4558 121.216 33.6574 128.563 33.6574 128.563C29.9774 123.686 3.51978 101.011 23.2062 50.4192C23.2254 50.368 24.403 46.592 27.0206 47.2C31.9998 48.352 30.5854 56.5888 27.8718 69.9456H27.8782Z" fill="#A5CDFD"/>
<path d="M61.3441 121.664L66.6369 141.485C66.9761 142.752 66.0161 144 64.7041 144H36.6209C35.7697 144 35.0145 143.462 34.7329 142.662L29.8817 128.826C29.4849 127.693 30.1697 126.464 31.3473 126.208L58.9889 120.224C60.0321 120 61.0689 120.627 61.3441 121.664Z" fill="#1452B9"/>
<path d="M39.3857 132.013C40.9793 131.558 42.6369 132.48 43.0913 134.074C43.5457 135.667 42.6241 137.325 41.0305 137.779C39.4369 138.234 37.7793 137.312 37.3249 135.718C36.8705 134.125 37.7921 132.467 39.3857 132.013Z" fill="#E7F2FC"/>
<path d="M16 130.003L17.9136 134.003L16 138.003L20 136.09L24 138.003L22.0928 134.003L24 130.003L20 131.91L16 130.003Z" fill="#F89C04"/>
<path d="M61.9966 101.504L63.9102 105.504L61.9966 109.504L65.9966 107.59L69.9966 109.504L68.0894 105.504L69.9966 101.504L65.9966 103.411L61.9966 101.504Z" fill="#FD4900"/>
<path d="M82.2529 114.003L84.1601 118.003L82.2529 122.003L86.2529 120.09L90.2529 122.003L88.3393 118.003L90.2529 114.003L86.2529 115.91L82.2529 114.003Z" fill="#F89C04"/>
<path d="M120.499 31.0016L122.413 35.0016L120.499 39.0016L124.499 37.0944L128.499 39.0016L126.592 35.0016L128.499 31.0016L124.499 32.9088L120.499 31.0016Z" fill="#6398DB"/>
<path d="M33.4976 20L35.4112 24L33.4976 28L37.4976 26.0864L41.4976 28L39.5904 24L41.4976 20L37.4976 21.9072L33.4976 20Z" fill="#72ACF1"/>
</svg>
