<svg width="141" height="126" viewBox="0 0 141 126" fill="none" xmlns="http://www.w3.org/2000/svg">
<rect y="0.682861" width="124.634" height="124.634" rx="62.3171" fill="#2C5FAC"/>
<g clip-path="url(#clip0_202_352)">
<path d="M86.9885 24.5361H33.4577C30.5179 24.5361 28.1348 26.8874 28.1348 29.7878V99.9095C28.1348 102.81 30.5179 105.161 33.4577 105.161H86.9885C89.9283 105.161 92.3115 102.81 92.3115 99.9095V29.7878C92.3115 26.8874 89.9283 24.5361 86.9885 24.5361Z" fill="white"/>
<path d="M72.9108 26.0641H72.4217C71.5658 26.0641 70.8647 25.3805 70.8647 24.528C70.8647 23.6755 71.5576 22.9919 72.4217 22.9919H72.9108C73.7667 22.9919 74.4677 23.6755 74.4677 24.528C74.4677 25.3805 73.7748 26.0641 72.9108 26.0641Z" fill="#1C1C1C"/>
<path d="M67.164 26.0641H64.5311C63.6751 26.0641 62.9741 25.3805 62.9741 24.528C62.9741 23.6755 63.667 22.9919 64.5311 22.9919H67.164C68.0199 22.9919 68.7209 23.6755 68.7209 24.528C68.7209 25.3805 68.028 26.0641 67.164 26.0641Z" fill="#1C1C1C"/>
<path d="M87.339 111H33.1071C29.5123 111 26.5859 108.113 26.5859 104.566V29.4339C26.5859 25.8872 29.5123 23 33.1071 23H59.0696C59.9255 23 60.6266 23.6836 60.6266 24.5361C60.6266 25.3886 59.9337 26.0722 59.0696 26.0722H33.1071C31.2241 26.0722 29.6917 27.5842 29.6917 29.442V104.574C29.6917 106.432 31.2241 107.944 33.1071 107.944H87.3472C89.2302 107.944 90.7626 106.432 90.7626 104.574V29.4339C90.7626 27.5761 89.2302 26.0641 87.3472 26.0641H78.6006C77.7447 26.0641 77.0437 25.3805 77.0437 24.528C77.0437 23.6755 77.7366 22.9919 78.6006 22.9919H87.3472C90.942 22.9919 93.8684 25.8792 93.8684 29.4259V104.558C93.8684 108.105 90.942 110.992 87.3472 110.992L87.339 111Z" fill="#1C1C1C"/>
<path d="M88.5859 102.001V31.3561C88.5859 30.6321 87.9911 30.0452 87.2572 30.0452L33.1884 30.0452C32.4546 30.0452 31.8597 30.6321 31.8597 31.3561L31.8597 102.001C31.8597 102.725 32.4546 103.311 33.1884 103.311H87.2572C87.9911 103.311 88.5859 102.725 88.5859 102.001Z" fill="#A3D4FF"/>
<path d="M73.5303 28.8228H28.7541C26.0071 28.8228 23.7817 31.0183 23.7817 33.7286V104.55C23.7817 107.26 26.0071 109.456 28.7541 109.456H82.9942C85.7412 109.456 87.9666 107.26 87.9666 104.55V43.0578L73.5385 28.8228H73.5303Z" fill="white"/>
<path d="M82.9941 110.976H28.7541C25.1593 110.976 22.2329 108.089 22.2329 104.542V33.7286C22.2329 30.1819 25.1593 27.2946 28.7541 27.2946H42.8643C43.7202 27.2946 44.4213 27.9783 44.4213 28.8307C44.4213 29.6832 43.7284 30.3668 42.8643 30.3668H28.7541C26.8711 30.3668 25.3386 31.8788 25.3386 33.7366V104.558C25.3386 106.416 26.8711 107.928 28.7541 107.928H82.9941C84.8771 107.928 86.4096 106.416 86.4096 104.558V43.6931L72.8863 30.3508H53.6243C52.7684 30.3508 52.0674 29.6672 52.0674 28.8147C52.0674 27.9622 52.7603 27.2786 53.6243 27.2786H73.5303C73.946 27.2786 74.3373 27.4394 74.6307 27.7289L89.0589 41.964C89.3523 42.2535 89.5153 42.6396 89.5153 43.0497V104.534C89.5153 108.081 86.589 110.968 82.9941 110.968V110.976Z" fill="#1C1C1C"/>
<path d="M48.2686 30.3508H48.1463C47.2904 30.3508 46.5894 29.6672 46.5894 28.8147C46.5894 27.9622 47.2822 27.2786 48.1463 27.2786H48.2686C49.1245 27.2786 49.8255 27.9622 49.8255 28.8147C49.8255 29.6672 49.1326 30.3508 48.2686 30.3508Z" fill="#1C1C1C"/>
<g opacity="0.3">
<path d="M72.0141 30.3507C71.9896 30.4472 71.9814 30.5518 71.9814 30.6563V39.9855C71.9814 43.5322 74.9078 46.4194 78.5026 46.4194H86.4096V43.685L72.8863 30.3507H72.0141Z" fill="#AFBC66"/>
</g>
<path d="M73.5303 38.1519C73.5303 40.8622 75.7556 43.0578 78.5027 43.0578H87.9584L73.5303 28.8228V38.1519Z" fill="white"/>
<path d="M87.9665 44.5939H78.5026C74.9078 44.5939 71.9814 41.7067 71.9814 38.16V28.8228C71.9814 28.2035 72.3564 27.6405 72.9433 27.4073C73.5221 27.1741 74.1905 27.3027 74.6388 27.737L89.067 41.9721C89.5072 42.4064 89.6457 43.0659 89.4012 43.6449C89.1566 44.224 88.5942 44.5939 87.9665 44.5939ZM75.0872 32.5223V38.16C75.0872 40.0178 76.6196 41.5298 78.5026 41.5298H84.2168L75.0872 32.5223Z" fill="#1C1C1C"/>
<path d="M55.8741 47.0388H33.4412C32.5853 47.0388 31.8843 46.3551 31.8843 45.5027C31.8843 44.6502 32.5772 43.9666 33.4412 43.9666H55.8741C56.73 43.9666 57.4311 44.6502 57.4311 45.5027C57.4311 46.3551 56.7382 47.0388 55.8741 47.0388Z" fill="#1C1C1C"/>
<path d="M77.6141 58.0729H33.4412C32.5853 58.0729 31.8843 57.3893 31.8843 56.5368C31.8843 55.6843 32.5772 55.0007 33.4412 55.0007H77.6141C78.4701 55.0007 79.1711 55.6843 79.1711 56.5368C79.1711 57.3893 78.4782 58.0729 77.6141 58.0729Z" fill="#1C1C1C"/>
<path d="M77.6141 69.1071H33.4412C32.5853 69.1071 31.8843 68.4235 31.8843 67.571C31.8843 66.7185 32.5772 66.0349 33.4412 66.0349H77.6141C78.4701 66.0349 79.1711 66.7185 79.1711 67.571C79.1711 68.4235 78.4782 69.1071 77.6141 69.1071Z" fill="#1C1C1C"/>
<path d="M77.6141 80.1413H33.4412C32.5853 80.1413 31.8843 79.4577 31.8843 78.6052C31.8843 77.7527 32.5772 77.0691 33.4412 77.0691H77.6141C78.4701 77.0691 79.1711 77.7527 79.1711 78.6052C79.1711 79.4577 78.4782 80.1413 77.6141 80.1413Z" fill="#1C1C1C"/>
<path d="M41.0794 102.049C45.2977 102.049 48.7173 98.6749 48.7173 94.513C48.7173 90.3512 45.2977 86.9773 41.0794 86.9773C36.861 86.9773 33.4414 90.3512 33.4414 94.513C33.4414 98.6749 36.861 102.049 41.0794 102.049Z" fill="#2B5185"/>
<path d="M41.0792 103.585C36.0089 103.585 31.8843 99.5154 31.8843 94.513C31.8843 89.5106 36.0089 85.4412 41.0792 85.4412C46.1494 85.4412 50.274 89.5106 50.274 94.513C50.274 99.5154 46.1494 103.585 41.0792 103.585ZM41.0792 88.5053C37.7207 88.5053 34.99 91.1995 34.99 94.513C34.99 97.8265 37.7207 100.521 41.0792 100.521C44.4376 100.521 47.1683 97.8265 47.1683 94.513C47.1683 91.1995 44.4376 88.5053 41.0792 88.5053Z" fill="#2B5185"/>
<path d="M95.7266 54.5585C95.4413 54.5585 95.156 54.478 94.8951 54.3172C94.1697 53.8668 93.9577 52.9178 94.4142 52.202L109.829 28.2196C110.285 27.5038 111.247 27.2947 111.973 27.7451L116.505 30.576C117.23 31.0264 117.442 31.9754 116.986 32.6912C116.529 33.4069 115.567 33.616 114.842 33.1657L111.622 31.1551L97.039 53.8427C96.7455 54.3011 96.2401 54.5585 95.7266 54.5585Z" fill="#2B5185"/>
<path d="M125.464 25.2508C127.639 26.6118 128.287 29.4642 126.907 31.6104L123.563 36.8131L115.667 31.873L119.011 26.6703C120.391 24.5241 123.282 23.8855 125.457 25.2465L125.464 25.2508Z" fill="white"/>
<path d="M123.572 38.345C123.279 38.345 122.994 38.2645 122.741 38.1037L114.85 33.1657C114.125 32.7153 113.913 31.7663 114.369 31.0505L117.711 25.8471C118.168 25.1313 119.13 24.9222 119.855 25.3726C120.581 25.8229 120.793 26.7719 120.336 27.4877L117.826 31.3963L123.091 34.6937L125.602 30.7851C126.05 30.0935 126.197 29.2651 126.01 28.4608C125.822 27.6566 125.341 26.973 124.632 26.5307C123.907 26.0803 123.695 25.1313 124.151 24.4155C124.608 23.6997 125.569 23.4906 126.295 23.941C127.697 24.8176 128.675 26.1848 129.034 27.7853C129.401 29.3857 129.107 31.0344 128.219 32.4177L124.877 37.6211C124.656 37.967 124.306 38.2082 123.907 38.2967C123.792 38.3208 123.678 38.3369 123.564 38.3369L123.572 38.345Z" fill="#1C1C1C"/>
<path d="M123.567 36.8177L115.671 31.8776L103.675 50.5418L111.571 55.4819L123.567 36.8177Z" fill="white"/>
<path d="M111.573 57.0114C111.28 57.0114 110.995 56.931 110.742 56.7701L102.851 51.8321C102.126 51.3817 101.914 50.4327 102.37 49.717L114.369 31.0505C114.589 30.7047 114.94 30.4634 115.339 30.375C115.739 30.2865 116.163 30.3589 116.513 30.576L124.404 35.5141C125.129 35.9644 125.341 36.9134 124.885 37.6292L112.886 56.2956C112.666 56.6415 112.315 56.8827 111.916 56.9712C111.802 56.9953 111.687 57.0114 111.573 57.0114ZM105.818 50.0708L111.092 53.3682L121.428 37.2914L116.163 33.9941L105.826 50.0708H105.818Z" fill="#1C1C1C"/>
<path d="M111.573 55.4815L103.677 50.5414L81.667 84.7863L89.563 89.7264L111.573 55.4815Z" fill="white"/>
<path d="M99.4517 58.644C99.1664 58.644 98.8811 58.5636 98.6202 58.4027C97.8948 57.9524 97.6828 57.0033 98.1393 56.2876L98.3186 56.0061C98.7751 55.2903 99.737 55.0812 100.462 55.5316C101.188 55.982 101.4 56.931 100.943 57.6467L100.764 57.9282C100.471 58.3866 99.9652 58.644 99.4517 58.644Z" fill="#1C1C1C"/>
<path d="M89.556 91.256C89.2707 91.256 88.9854 91.1755 88.7245 91.0147L80.8339 86.0766C80.4834 85.8595 80.2388 85.5137 80.1492 85.1196C80.0595 84.7255 80.1328 84.3073 80.3529 83.9615L95.6125 60.2203C96.069 59.5045 97.0309 59.2954 97.7564 59.7458C98.4819 60.1962 98.6938 61.1452 98.2373 61.861L83.8092 84.3154L89.075 87.6127L109.421 55.9578L104.147 52.6604L103.446 53.7542C102.99 54.47 102.028 54.6791 101.302 54.2287C100.577 53.7783 100.365 52.8293 100.821 52.1136L102.362 49.725C102.582 49.3791 102.933 49.1379 103.332 49.0494C103.731 48.9609 104.155 49.0333 104.506 49.2505L112.396 54.1885C112.747 54.4056 112.992 54.7515 113.081 55.1456C113.171 55.5396 113.097 55.9578 112.877 56.3037L90.8684 90.5482C90.5749 91.0066 90.0695 91.264 89.556 91.264V91.256Z" fill="#1C1C1C"/>
<path d="M77.9238 99.226L81.6654 84.7899L89.5642 89.728L77.9238 99.226Z" fill="white"/>
<path d="M77.9237 100.762C77.6384 100.762 77.345 100.682 77.0923 100.521C76.5217 100.167 76.2527 99.4914 76.4157 98.848L80.1572 84.4119C80.2795 83.9374 80.63 83.5513 81.0865 83.3664C81.5512 83.1894 82.0728 83.2377 82.4886 83.495L90.3792 88.4331C90.8031 88.6985 91.0639 89.1408 91.0965 89.6314C91.1292 90.122 90.9172 90.5965 90.5341 90.9101L78.8938 100.408C78.6085 100.641 78.2579 100.762 77.9074 100.762H77.9237ZM82.6434 87.2106L80.6137 95.0439L86.923 89.8888L82.6434 87.2106Z" fill="#1C1C1C"/>
<path d="M76.5869 102.829C76.3016 102.829 76.0163 102.749 75.7555 102.588C75.03 102.137 74.8181 101.188 75.2746 100.473L76.6032 98.3976C77.0597 97.6818 78.0216 97.4727 78.7471 97.9231C79.4726 98.3734 79.6845 99.3224 79.228 100.038L77.8993 102.113C77.6059 102.572 77.1005 102.829 76.5869 102.829Z" fill="#1C1C1C"/>
<path d="M139.443 110.976H135.09C134.234 110.976 133.533 110.292 133.533 109.44C133.533 108.587 134.226 107.904 135.09 107.904H139.443C140.299 107.904 141 108.587 141 109.44C141 110.292 140.307 110.976 139.443 110.976Z" fill="#1C1C1C"/>
<path d="M130.036 110.976H19.1272C18.2713 110.976 17.5703 110.292 17.5703 109.44C17.5703 108.587 18.2632 107.904 19.1272 107.904H130.028C130.884 107.904 131.585 108.587 131.585 109.44C131.585 110.292 130.892 110.976 130.028 110.976H130.036Z" fill="#1C1C1C"/>
<path d="M14.2769 110.976H12.5569C11.701 110.976 11 110.292 11 109.44C11 108.587 11.6929 107.904 12.5569 107.904H14.2769C15.1328 107.904 15.8338 108.587 15.8338 109.44C15.8338 110.292 15.141 110.976 14.2769 110.976Z" fill="#1C1C1C"/>
</g>
<defs>
<clipPath id="clip0_202_352">
<rect width="130" height="88" fill="white" transform="translate(11 23)"/>
</clipPath>
</defs>
</svg>
