<svg width="141" height="138" viewBox="0 0 141 138" fill="none" xmlns="http://www.w3.org/2000/svg">
<g filter="url(#filter0_d_202_349)">
<rect x="7.15381" y="0.384644" width="129.231" height="129.231" rx="64.6154" fill="#2C5FAC"/>
<g clip-path="url(#clip0_202_349)">
<path d="M134.423 109H130.002C129.129 109 128.425 108.295 128.425 107.419C128.425 106.544 129.129 105.838 130.002 105.838H134.423C135.297 105.838 136 106.544 136 107.419C136 108.295 135.297 109 134.423 109Z" fill="#1C1C1C"/>
<path d="M124.862 109H12.255C11.3816 109 10.6782 108.295 10.6782 107.419C10.6782 106.544 11.3816 105.838 12.255 105.838H124.862C125.736 105.838 126.439 106.544 126.439 107.419C126.439 108.295 125.736 109 124.862 109Z" fill="#1C1C1C"/>
<path d="M7.32357 109H5.57677C4.70336 109 4 108.295 4 107.419C4 106.544 4.70336 105.838 5.57677 105.838H7.32357C8.19698 105.838 8.90034 106.544 8.90034 107.419C8.90034 108.295 8.19698 109 7.32357 109Z" fill="#1C1C1C"/>
<path d="M32.1191 56.7162C32.1191 52.0357 35.5277 48.0526 40.1421 47.3396L103.066 37.6144C108.801 36.731 113.972 41.1713 113.972 46.9909V86.3956C113.972 91.6341 109.736 95.8807 104.511 95.8807H41.5797C36.3548 95.8807 32.1191 91.6341 32.1191 86.3956" fill="white"/>
<path d="M104.504 97.4692H41.5798C35.4891 97.4692 30.5424 92.502 30.5424 86.4033C30.5424 85.5277 31.2458 84.8225 32.1192 84.8225C32.9926 84.8225 33.6959 85.5277 33.6959 86.4033C33.6959 90.7584 37.2359 94.3075 41.5798 94.3075H104.504C108.847 94.3075 112.387 90.7584 112.387 86.4033V46.9986C112.387 44.6894 111.383 42.5041 109.636 41.0007C107.889 39.4974 105.578 38.8387 103.298 39.1874L40.374 48.9127C36.5016 49.5094 33.6882 52.795 33.6882 56.7239C33.6882 57.5995 32.9848 58.3047 32.1114 58.3047C31.238 58.3047 30.5347 57.5995 30.5347 56.7239C30.5347 51.2219 34.4688 46.6267 39.8948 45.7898L102.819 36.0645C106.003 35.5763 109.234 36.4985 111.684 38.5985C114.134 40.7063 115.533 43.7672 115.533 46.9986V86.4033C115.533 92.502 110.579 97.4692 104.496 97.4692H104.504Z" fill="#1C1C1C"/>
<path d="M85.0789 22.5724L38.5049 67.3663L62.642 92.5924L109.216 47.7986L85.0789 22.5724Z" fill="white"/>
<path d="M85.0789 22.5724L38.5049 67.3663L62.642 92.5924L109.216 47.7986L85.0789 22.5724Z" fill="white"/>
<path d="M47.0674 59.1339L38.5034 67.3713L46.7196 75.9574L54.4257 84.0166L62.6418 92.6027L71.2058 84.3653L100.654 56.0419L109.218 47.8045L101.002 39.2184L93.296 31.1592L85.0798 22.5731L47.0674 59.1261V59.1339ZM98.892 41.9539C96.9365 45.4178 96.8515 49.6721 98.6601 53.2135L68.4852 82.2343C65.0302 80.2737 60.7868 80.1885 57.2546 82.0018L48.8451 73.2142C50.8006 69.7503 50.8857 65.496 49.077 61.9546L79.252 32.9338C82.707 34.8944 86.9503 34.9796 90.4826 33.1663L98.892 41.9539Z" fill="#A3D4FF"/>
<path d="M80.0713 28.9817C79.6539 28.9817 79.2443 28.8189 78.9351 28.4935C78.3322 27.8658 78.3554 26.8661 78.9815 26.2617L79.3989 25.8587C80.0249 25.2543 81.022 25.2775 81.6249 25.9052C82.2278 26.5329 82.2046 27.5326 81.5785 28.137L81.1611 28.54C80.852 28.8344 80.4655 28.9817 80.0713 28.9817Z" fill="#2B5185"/>
<path d="M62.6418 94.1758C62.2244 94.1758 61.8148 94.0131 61.5056 93.6876L37.3749 68.4639C37.0889 68.1617 36.9266 67.7587 36.9343 67.3403C36.9421 66.9218 37.1198 66.5189 37.4213 66.2321L74.282 30.7795C74.9081 30.1751 75.9052 30.1983 76.5081 30.826C77.1109 31.4537 77.0878 32.4534 76.4617 33.0578L40.7371 67.4178L62.6882 90.3632L106.984 47.7658L83.9436 23.6735C83.3407 23.0458 83.3639 22.0462 83.99 21.4417C84.616 20.8373 85.6131 20.8605 86.216 21.4882L110.347 46.7119C110.633 47.0141 110.795 47.4171 110.787 47.8355C110.78 48.254 110.602 48.6569 110.3 48.9437L63.7239 93.7341C63.4147 94.0286 63.0283 94.1758 62.6341 94.1758H62.6418Z" fill="#2B5185"/>
<path d="M73.8649 66.8908C78.9916 66.8908 83.1477 62.724 83.1477 57.584C83.1477 52.444 78.9916 48.2772 73.8649 48.2772C68.7381 48.2772 64.582 52.444 64.582 57.584C64.582 62.724 68.7381 66.8908 73.8649 66.8908Z" fill="#A3D4FF"/>
<path d="M99.0881 26.0455L41.6089 55.4717L57.4651 86.6044L114.944 57.1783L99.0881 26.0455Z" fill="white"/>
<path d="M99.0881 26.0455L41.6089 55.4717L57.4651 86.6044L114.944 57.1783L99.0881 26.0455Z" fill="white"/>
<path d="M52.1762 50.0595L41.6104 55.4684L47.0054 66.0616L52.068 76.0038L57.463 86.597L68.0289 81.188L104.372 62.5822L114.938 57.1732L109.543 46.5801L104.48 36.6378L99.085 26.0447L52.1762 50.0595ZM106.737 48.5871C103.869 51.3381 102.563 55.3832 103.274 59.3043L66.0348 78.3673C63.2909 75.4924 59.2562 74.1828 55.3452 74.8957L49.8188 64.0545C52.6864 61.3036 53.9926 57.2585 53.2815 53.3374L90.521 34.2743C93.2649 37.1493 97.2995 38.4589 101.211 37.746L106.737 48.5871Z" fill="#A3D4FF"/>
<path d="M57.471 88.1779C56.899 88.1779 56.3425 87.8601 56.0643 87.3177L40.2116 56.1891C40.0184 55.8172 39.9874 55.3832 40.1188 54.9802C40.2502 54.585 40.5285 54.2518 40.8995 54.0581L98.3741 24.6343C99.1471 24.2391 100.098 24.5491 100.5 25.324L116.352 56.4526C116.546 56.8246 116.576 57.2585 116.445 57.6615C116.314 58.0567 116.035 58.3899 115.664 58.5836L58.1898 88.0074C57.9579 88.1236 57.7183 88.1779 57.471 88.1779ZM43.7361 56.1581L58.1589 84.4737L112.828 56.4913L98.4051 28.1757L43.7361 56.1581Z" fill="#2B5185"/>
<path d="M78.2779 65.6276C83.4047 65.6276 87.5608 61.4608 87.5608 56.3208C87.5608 51.1808 83.4047 47.014 78.2779 47.014C73.1512 47.014 68.9951 51.1808 68.9951 56.3208C68.9951 61.4608 73.1512 65.6276 78.2779 65.6276Z" fill="#A3D4FF"/>
<path d="M110.818 47.4713H41.5797C36.3548 47.4713 32.1191 51.7179 32.1191 56.9563V97.9419C32.1191 103.18 36.3548 107.427 41.5797 107.427H110.818C116.043 107.427 120.279 103.18 120.279 97.9419V56.9563C120.279 51.7179 116.043 47.4713 110.818 47.4713Z" fill="white"/>
<path d="M32.1192 67.4875C31.2458 67.4875 30.5425 66.7823 30.5425 65.9067V65.3565C30.5425 64.4808 31.2458 63.7756 32.1192 63.7756C32.9927 63.7756 33.696 64.4808 33.696 65.3565V65.9067C33.696 66.7823 32.9927 67.4875 32.1192 67.4875Z" fill="#1C1C1C"/>
<path d="M110.818 109H41.5798C35.4892 109 30.5425 104.033 30.5425 97.9342V71.7496C30.5425 70.8739 31.2458 70.1688 32.1192 70.1688C32.9927 70.1688 33.696 70.8739 33.696 71.7496V97.9342C33.696 102.289 37.236 105.838 41.5798 105.838H110.811C115.154 105.838 118.694 102.289 118.694 97.9342V56.9564C118.694 52.6013 115.154 49.0522 110.811 49.0522H106.683C105.81 49.0522 105.106 48.347 105.106 47.4713C105.106 46.5957 105.81 45.8905 106.683 45.8905H110.811C116.894 45.8905 121.848 50.8577 121.848 56.9564V97.9342C121.848 104.033 116.894 109 110.811 109H110.818Z" fill="#1C1C1C"/>
<path d="M101.18 49.0522H99.2633C98.3899 49.0522 97.6865 48.347 97.6865 47.4713C97.6865 46.5957 98.3899 45.8905 99.2633 45.8905H101.18C102.054 45.8905 102.757 46.5957 102.757 47.4713C102.757 48.347 102.054 49.0522 101.18 49.0522Z" fill="#1C1C1C"/>
<path d="M93.837 49.0522H93.2882C92.4148 49.0522 91.7114 48.347 91.7114 47.4713C91.7114 46.5957 92.4148 45.8905 93.2882 45.8905H93.837C94.7104 45.8905 95.4137 46.5957 95.4137 47.4713C95.4137 48.347 94.7104 49.0522 93.837 49.0522Z" fill="#1C1C1C"/>
<path d="M32.1192 61.0325C31.2458 61.0325 30.5425 60.3273 30.5425 59.4516V56.9564C30.5425 50.8577 35.4969 45.8905 41.5798 45.8905H87.7389C88.6123 45.8905 89.3156 46.5957 89.3156 47.4713C89.3156 48.347 88.6123 49.0522 87.7389 49.0522H41.5798C37.236 49.0522 33.696 52.6013 33.696 56.9564V59.4516C33.696 60.3273 32.9927 61.0325 32.1192 61.0325Z" fill="#1C1C1C"/>
<path d="M116.492 99.8327V58.8471C116.492 55.7057 113.952 53.1592 110.818 53.1592L41.5799 53.1592C38.4466 53.1592 35.9066 55.7057 35.9066 58.8471V99.8327C35.9066 102.974 38.4466 105.521 41.5799 105.521H110.818C113.952 105.521 116.492 102.974 116.492 99.8327Z" fill="#A3D4FF"/>
<g opacity="0.3">
<path d="M118.702 90.3321V68.3554C118.44 68.3244 118.177 68.3011 117.906 68.3011H100.461C96.8132 68.3011 93.8374 71.2768 93.8374 74.9422V83.7453C93.8374 87.4029 96.8054 90.3864 100.461 90.3864H117.906C118.177 90.3864 118.44 90.3631 118.702 90.3321Z" fill="#AFBC66"/>
</g>
<path d="M117.898 86.9071H100.453C97.6632 86.9071 95.4062 84.6443 95.4062 81.8468V73.0438C95.4062 70.2463 97.6632 67.9835 100.453 67.9835H117.898C120.689 67.9835 122.946 70.2463 122.946 73.0438V81.8468C122.946 84.6443 120.689 86.9071 117.898 86.9071Z" fill="white"/>
<path d="M112.488 69.5643H112.295C111.421 69.5643 110.718 68.8591 110.718 67.9834C110.718 67.1078 111.421 66.4026 112.295 66.4026H112.488C113.361 66.4026 114.065 67.1078 114.065 67.9834C114.065 68.8591 113.361 69.5643 112.488 69.5643Z" fill="#1C1C1C"/>
<path d="M117.898 88.4878H100.454C96.8053 88.4878 93.8296 85.5121 93.8296 81.8468V73.0437C93.8296 69.386 96.7976 66.4026 100.454 66.4026H106.645C107.518 66.4026 108.221 67.1078 108.221 67.9834C108.221 68.8591 107.518 69.5643 106.645 69.5643H100.454C98.5444 69.5643 96.9831 71.1219 96.9831 73.0437V81.8468C96.9831 83.7608 98.5367 85.3262 100.454 85.3262H117.898C119.815 85.3262 121.369 83.7686 121.369 81.8468V73.0437C121.369 71.1296 119.815 69.5643 117.898 69.5643C117.025 69.5643 116.322 68.8591 116.322 67.9834C116.322 67.1078 117.025 66.4026 117.898 66.4026C121.554 66.4026 124.522 69.3783 124.522 73.0437V81.8468C124.522 85.5044 121.554 88.4878 117.898 88.4878Z" fill="#1C1C1C"/>
<g opacity="0.3">
<path d="M106.003 83.9158C108.744 83.9158 110.965 81.6884 110.965 78.9408C110.965 76.1932 108.744 73.9658 106.003 73.9658C103.263 73.9658 101.041 76.1932 101.041 78.9408C101.041 81.6884 103.263 83.9158 106.003 83.9158Z" fill="#AFBC66"/>
</g>
<path d="M106.003 81.0719C107.873 81.0719 109.388 79.5523 109.388 77.6777C109.388 75.8032 107.873 74.2836 106.003 74.2836C104.133 74.2836 102.618 75.8032 102.618 77.6777C102.618 79.5523 104.133 81.0719 106.003 81.0719Z" fill="#2B5185"/>
<path d="M106.003 82.6527C103.267 82.6527 101.041 80.421 101.041 77.6777C101.041 74.9345 103.267 72.7028 106.003 72.7028C108.739 72.7028 110.965 74.9345 110.965 77.6777C110.965 80.421 108.739 82.6527 106.003 82.6527ZM106.003 75.8644C105.006 75.8644 104.195 76.6781 104.195 77.6777C104.195 78.6774 105.006 79.4911 106.003 79.4911C107 79.4911 107.812 78.6774 107.812 77.6777C107.812 76.6781 107 75.8644 106.003 75.8644Z" fill="#2B5185"/>
<path d="M50.4683 99.8636H22.4575V107.419H50.4683V99.8636Z" fill="white"/>
<path d="M50.4684 109H22.4576C21.5842 109 20.8809 108.295 20.8809 107.419V99.8637C20.8809 98.988 21.5842 98.2828 22.4576 98.2828H50.4684C51.3418 98.2828 52.0452 98.988 52.0452 99.8637V107.419C52.0452 108.295 51.3418 109 50.4684 109ZM24.0344 105.838H48.8916V101.445H24.0344V105.838Z" fill="#1C1C1C"/>
<path d="M50.4683 92.3314H22.4575V99.8869H50.4683V92.3314Z" fill="white"/>
<path d="M50.4684 101.468H22.4576C21.5842 101.468 20.8809 100.763 20.8809 99.8869V92.3314C20.8809 91.4558 21.5842 90.7506 22.4576 90.7506H50.4684C51.3418 90.7506 52.0452 91.4558 52.0452 92.3314V99.8869C52.0452 100.763 51.3418 101.468 50.4684 101.468ZM24.0344 98.3061H48.8916V93.9123H24.0344V98.3061Z" fill="#1C1C1C"/>
<path d="M44.795 84.7759H16.7842V92.3314H44.795V84.7759Z" fill="white"/>
<path d="M44.7951 93.9122H16.7843C15.9109 93.9122 15.2075 93.207 15.2075 92.3314V84.7759C15.2075 83.9002 15.9109 83.1951 16.7843 83.1951H44.7951C45.6685 83.1951 46.3718 83.9002 46.3718 84.7759V92.3314C46.3718 93.207 45.6685 93.9122 44.7951 93.9122ZM18.3611 90.7505H43.2183V86.3567H18.3611V90.7505Z" fill="#1C1C1C"/>
<g opacity="0.3">
<path d="M46.333 93.9122H24.0342V95.8108H46.333V93.9122Z" fill="#AFBC66"/>
</g>
<path d="M71.5161 104.448L60.5039 78.6263L53.5747 81.5967L64.5869 107.419L71.5161 104.448Z" fill="white"/>
<path d="M64.5818 109C63.9712 109 63.3838 108.644 63.1287 108.039L52.1145 82.2188C51.9522 81.8313 51.9445 81.3974 52.0991 81.0099C52.2536 80.6224 52.5551 80.3125 52.9415 80.142L59.8669 77.174C60.2534 77.0113 60.6862 77.0036 61.0727 77.1586C61.4592 77.3135 61.7683 77.6158 61.9384 78.0032L63.9789 82.7922C64.319 83.5981 63.948 84.5203 63.1519 84.869C62.348 85.21 61.4283 84.838 61.0804 84.0398L59.6583 80.7077L55.6313 82.4358L65.4011 105.35L69.428 103.622L65.3238 93.9976C64.9837 93.1917 65.3547 92.2618 66.1508 91.9208C66.9469 91.5798 67.8822 91.9518 68.2223 92.75L72.9448 103.831C73.1071 104.219 73.1149 104.653 72.9603 105.04C72.8057 105.428 72.5043 105.738 72.1178 105.908L65.1924 108.876C64.9914 108.961 64.7827 109 64.5741 109H64.5818Z" fill="#2B5185"/>
<path d="M64.7366 90.1385C64.126 90.1385 63.5386 89.782 63.2835 89.1776L63.1676 88.9063C62.8275 88.1004 63.1985 87.1783 64.0023 86.8295C64.8062 86.4886 65.7337 86.8605 66.0738 87.6665L66.1897 87.9377C66.5298 88.7436 66.1588 89.6657 65.355 90.0145C65.154 90.0997 64.9453 90.1385 64.7366 90.1385Z" fill="#2B5185"/>
<path d="M50.4683 77.2205H22.4575V84.7759H50.4683V77.2205Z" fill="white"/>
<path d="M50.4684 86.3568H22.4576C21.5842 86.3568 20.8809 85.6516 20.8809 84.776V77.2205C20.8809 76.3448 21.5842 75.6396 22.4576 75.6396H40.7218C41.5952 75.6396 42.2986 76.3448 42.2986 77.2205C42.2986 78.0961 41.5952 78.8013 40.7218 78.8013H24.0344V83.1951H48.8916V78.8013H46.0241C45.1507 78.8013 44.4473 78.0961 44.4473 77.2205C44.4473 76.3448 45.1507 75.6396 46.0241 75.6396H50.4684C51.3418 75.6396 52.0452 76.3448 52.0452 77.2205V84.776C52.0452 85.6516 51.3418 86.3568 50.4684 86.3568Z" fill="#1C1C1C"/>
<g opacity="0.3">
<path d="M43.2105 86.3568H20.9116V88.2554H43.2105V86.3568Z" fill="#AFBC66"/>
</g>
<g opacity="0.3">
<path d="M48.8914 101.444H24.0342V103.366H48.8914V101.444Z" fill="#AFBC66"/>
</g>
</g>
</g>
<defs>
<filter id="filter0_d_202_349" x="0" y="0.384644" width="140.385" height="137.231" filterUnits="userSpaceOnUse" color-interpolation-filters="sRGB">
<feFlood flood-opacity="0" result="BackgroundImageFix"/>
<feColorMatrix in="SourceAlpha" type="matrix" values="0 0 0 0 0 0 0 0 0 0 0 0 0 0 0 0 0 0 127 0" result="hardAlpha"/>
<feOffset dy="4"/>
<feGaussianBlur stdDeviation="2"/>
<feComposite in2="hardAlpha" operator="out"/>
<feColorMatrix type="matrix" values="0 0 0 0 0 0 0 0 0 0 0 0 0 0 0 0 0 0 0.25 0"/>
<feBlend mode="normal" in2="BackgroundImageFix" result="effect1_dropShadow_202_349"/>
<feBlend mode="normal" in="SourceGraphic" in2="effect1_dropShadow_202_349" result="shape"/>
</filter>
<clipPath id="clip0_202_349">
<rect width="132" height="88" fill="white" transform="translate(4 21)"/>
</clipPath>
</defs>
</svg>
