<svg width="160" height="160" viewBox="0 0 160 160" fill="none" xmlns="http://www.w3.org/2000/svg">
<path d="M128.525 108.474L115.898 114.368L95.2959 123.827L57.6191 121.907L63.0783 112.09L95.9807 110.234C108.947 107.565 118.355 100.986 123.187 100.96C127.642 100.934 129.421 104.813 128.525 108.474Z" fill="#6398DB"/>
<path d="M119.686 43.8912L107.846 18.4L80.4351 29.408L91.5775 33.6384C66.0159 75.0016 16.1855 89.6 16.1855 89.6C16.1855 89.6 73.6832 85.0624 108.89 39.904L119.686 43.8848V43.8912Z" fill="#6398DB"/>
<path d="M107.846 18.4L80.4351 29.408L91.5775 33.6384C66.0159 75.0016 16.1855 89.6 16.1855 89.6C16.1855 89.6 95.1487 71.808 107.846 18.3936V18.4Z" fill="#72ACF1"/>
<path d="M131.187 18.4C126.95 18.4 123.52 21.8304 123.52 26.0672V106.733H138.854V26.0608C138.854 21.824 135.424 18.3936 131.187 18.3936V18.4Z" fill="#022E87"/>
<path d="M131.187 39.4816C126.95 39.4816 123.52 42.912 123.52 47.1488V106.733H138.854V47.1488C138.854 42.912 135.424 39.4816 131.187 39.4816Z" fill="#1452B9"/>
<path d="M117.126 47.1488H106.912C105.498 47.1488 104.352 48.295 104.352 49.7088V119.328C104.352 120.742 105.498 121.888 106.912 121.888H117.126C118.54 121.888 119.686 120.742 119.686 119.328V49.7088C119.686 48.295 118.54 47.1488 117.126 47.1488Z" fill="#022E87"/>
<path d="M117.126 62.4832H106.912C105.498 62.4832 104.352 63.6293 104.352 65.0432V119.341C104.352 120.755 105.498 121.901 106.912 121.901H117.126C118.54 121.901 119.686 120.755 119.686 119.341V65.0432C119.686 63.6293 118.54 62.4832 117.126 62.4832Z" fill="#1452B9"/>
<path d="M97.9585 64.4032H87.7441C86.3302 64.4032 85.1841 65.5493 85.1841 66.9632V123.168C85.1841 124.582 86.3302 125.728 87.7441 125.728H97.9585C99.3723 125.728 100.518 124.582 100.518 123.168V66.9632C100.518 65.5493 99.3723 64.4032 97.9585 64.4032Z" fill="#022E87"/>
<path d="M97.9585 75.9041H87.7441C86.3302 75.9041 85.1841 77.0502 85.1841 78.4641V123.174C85.1841 124.588 86.3302 125.734 87.7441 125.734H97.9585C99.3723 125.734 100.518 124.588 100.518 123.174V78.4641C100.518 77.0502 99.3723 75.9041 97.9585 75.9041Z" fill="#1452B9"/>
<path d="M78.7905 75.9041H68.5761C67.1623 75.9041 66.0161 77.0502 66.0161 78.4641V123.168C66.0161 124.582 67.1623 125.728 68.5761 125.728H78.7905C80.2044 125.728 81.3505 124.582 81.3505 123.168V78.4641C81.3505 77.0502 80.2044 75.9041 78.7905 75.9041Z" fill="#022E87"/>
<path d="M78.7905 83.5648H68.5761C67.1623 83.5648 66.0161 84.711 66.0161 86.1248V123.168C66.0161 124.582 67.1623 125.728 68.5761 125.728H78.7905C80.2044 125.728 81.3505 124.582 81.3505 123.168V86.1248C81.3505 84.711 80.2044 83.5648 78.7905 83.5648Z" fill="#1452B9"/>
<path d="M59.6289 83.5712H49.4145C48.0006 83.5712 46.8545 84.7173 46.8545 86.1312V123.168C46.8545 124.582 48.0006 125.728 49.4145 125.728H59.6289C61.0427 125.728 62.1889 124.582 62.1889 123.168V86.1312C62.1889 84.7173 61.0427 83.5712 59.6289 83.5712Z" fill="#022E87"/>
<path d="M59.6289 89.3184H49.4145C48.0006 89.3184 46.8545 90.4645 46.8545 91.8784V123.174C46.8545 124.588 48.0006 125.734 49.4145 125.734H59.6289C61.0427 125.734 62.1889 124.588 62.1889 123.174V91.8784C62.1889 90.4645 61.0427 89.3184 59.6289 89.3184Z" fill="#1452B9"/>
<path d="M41.1007 68.224C54.861 68.224 66.0159 57.069 66.0159 43.3088C66.0159 29.5485 54.861 18.3936 41.1007 18.3936C27.3405 18.3936 16.1855 29.5485 16.1855 43.3088C16.1855 57.069 27.3405 68.224 41.1007 68.224Z" fill="#FB7600"/>
<path d="M41.1006 63.4305C52.2135 63.4305 61.2222 54.4217 61.2222 43.3089C61.2222 32.196 52.2135 23.1873 41.1006 23.1873C29.9878 23.1873 20.979 32.196 20.979 43.3089C20.979 54.4217 29.9878 63.4305 41.1006 63.4305Z" fill="#F89C04"/>
<path d="M41.1265 57.8112C37.4913 57.8112 34.2849 55.7888 32.9665 52.6465C32.5953 51.7696 33.0113 50.7584 33.8881 50.3873C34.7649 50.0225 35.7761 50.432 36.1473 51.3088C36.9153 53.1328 38.9185 54.3617 41.1265 54.3617C44.0513 54.3617 46.4321 52.2688 46.4321 49.696C46.4321 47.5648 45.5041 45.0304 41.1009 45.0304C34.6433 45.0304 32.3457 40.8384 32.3457 36.9152C32.3457 32.4416 36.2753 28.8 41.1009 28.8C44.7361 28.8 47.9425 30.8288 49.2609 33.9648C49.6321 34.8416 49.2161 35.8528 48.3393 36.224C47.4561 36.5952 46.4513 36.1856 46.0801 35.3024C45.3121 33.4784 43.3089 32.2496 41.1009 32.2496C38.1761 32.2496 35.7953 34.3424 35.7953 36.9152C35.7953 39.968 37.6321 41.5808 41.1009 41.5808C47.5777 41.5808 49.8817 45.7729 49.8817 49.696C49.8817 54.1696 45.9521 57.8048 41.1265 57.8048V57.8112Z" fill="#E7F2FC"/>
<path d="M41.101 32.2624C40.1474 32.2624 39.3794 31.4944 39.3794 30.5344V27.0208C39.3794 26.0672 40.1538 25.2992 41.101 25.2992C42.0482 25.2992 42.8226 26.0736 42.8226 27.0208V30.5344C42.8226 31.488 42.0482 32.2624 41.101 32.2624Z" fill="#E7F2FC"/>
<path d="M41.101 61.3312C40.1474 61.3312 39.3794 60.5568 39.3794 59.6032V56.0896C39.3794 55.136 40.1538 54.368 41.101 54.368C42.0482 54.368 42.8226 55.1424 42.8226 56.0896V59.6032C42.8226 60.5568 42.0482 61.3312 41.101 61.3312Z" fill="#E7F2FC"/>
<path d="M54.5152 45.2225C55.572 45.2225 56.4288 44.3657 56.4288 43.3089C56.4288 42.252 55.572 41.3953 54.5152 41.3953C53.4583 41.3953 52.6016 42.252 52.6016 43.3089C52.6016 44.3657 53.4583 45.2225 54.5152 45.2225Z" fill="#E7F2FC"/>
<path d="M27.6802 45.2225C28.7371 45.2225 29.5938 44.3657 29.5938 43.3089C29.5938 42.252 28.7371 41.3953 27.6802 41.3953C26.6234 41.3953 25.7666 42.252 25.7666 43.3089C25.7666 44.3657 26.6234 45.2225 27.6802 45.2225Z" fill="#E7F2FC"/>
<path d="M100.589 114.541C98.3873 115.418 94.7585 112.365 88.5313 113.146C88.5313 113.146 59.5009 107.078 36.0513 106.656C36.0193 106.656 36.0513 125.632 36.0513 125.632C43.3409 128.442 80.7745 153.325 135.808 111.014C135.866 110.97 135.923 110.931 135.987 110.893C136.403 110.63 140.09 108.198 138.426 105.19C135.264 99.4751 116.883 108.045 100.589 114.541Z" fill="#72ACF1"/>
<path d="M108.243 117.882C106.137 118.976 103.955 120.102 101.709 121.248C101.709 121.248 101.709 121.248 101.702 121.248C101.689 121.248 101.689 121.261 101.677 121.267C96.2814 123.878 90.5278 125.178 84.1278 125.178C79.1934 125.178 73.8686 124.403 68.0382 122.861C66.9246 122.566 66.259 121.421 66.5534 120.314C66.8478 119.2 67.9934 118.541 69.1006 118.829C81.4462 122.099 91.2062 121.677 99.8078 117.536C103.603 115.584 103.693 114.874 103.865 113.446C104.147 111.091 103.776 109.338 102.752 108.243C101.229 106.605 98.5726 106.72 98.5406 106.714C78.5406 107.059 74.8862 104.915 70.6686 102.445C66.8542 100.211 57.5806 97.4912 34.1246 97.0752C34.0926 97.0752 34.1246 131.386 34.1246 131.386C41.4142 134.195 78.5982 158.752 133.881 116.768C133.939 116.73 138.163 113.952 136.499 110.944C133.337 105.229 123.699 109.862 108.237 117.888L108.243 117.882Z" fill="#A5CDFD"/>
<path d="M34.7135 95.3536H16.8255C16.4721 95.3536 16.1855 95.6402 16.1855 95.9936V133.043C16.1855 133.397 16.4721 133.683 16.8255 133.683H34.7135C35.067 133.683 35.3535 133.397 35.3535 133.043V95.9936C35.3535 95.6402 35.067 95.3536 34.7135 95.3536Z" fill="#1452B9"/>
<path d="M25.773 127.936C27.3601 127.936 28.6466 126.649 28.6466 125.062C28.6466 123.475 27.3601 122.189 25.773 122.189C24.186 122.189 22.8994 123.475 22.8994 125.062C22.8994 126.649 24.186 127.936 25.773 127.936Z" fill="#E7F2FC"/>
<path d="M78.2975 42.3552C78.2975 43.9424 77.0111 45.2288 75.4239 45.2288C73.8367 45.2288 72.5503 43.9424 72.5503 42.3552C72.5503 40.768 73.8367 39.4816 75.4239 39.4816C77.0111 39.4816 78.2975 40.768 78.2975 42.3552Z" fill="#A5CDFD"/>
<path d="M21.9391 68.2304C21.9391 69.8176 20.6527 71.104 19.0655 71.104C17.4783 71.104 16.1919 69.8176 16.1919 68.2304C16.1919 66.6432 17.4783 65.3568 19.0655 65.3568C20.6527 65.3568 21.9391 66.6432 21.9391 68.2304Z" fill="#A5CDFD"/>
<path d="M39.1807 75.2512C40.2375 75.2512 41.0943 74.3944 41.0943 73.3375C41.0943 72.2807 40.2375 71.424 39.1807 71.424C38.1238 71.424 37.2671 72.2807 37.2671 73.3375C37.2671 74.3944 38.1238 75.2512 39.1807 75.2512Z" fill="#A5CDFD"/>
<path d="M28.2432 81.8816C29.3 81.8816 30.1568 81.0249 30.1568 79.968C30.1568 78.9112 29.3 78.0544 28.2432 78.0544C27.1863 78.0544 26.3296 78.9112 26.3296 79.968C26.3296 81.0249 27.1863 81.8816 28.2432 81.8816Z" fill="#A5CDFD"/>
<path d="M20.0191 24.1408C21.0759 24.1408 21.9327 23.2841 21.9327 22.2272C21.9327 21.1703 21.0759 20.3136 20.0191 20.3136C18.9622 20.3136 18.1055 21.1703 18.1055 22.2272C18.1055 23.2841 18.9622 24.1408 20.0191 24.1408Z" fill="#A5CDFD"/>
<path d="M69.3184 34.528C70.3752 34.528 71.232 33.6713 71.232 32.6144C71.232 31.5576 70.3752 30.7008 69.3184 30.7008C68.2615 30.7008 67.4048 31.5576 67.4048 32.6144C67.4048 33.6713 68.2615 34.528 69.3184 34.528Z" fill="#A5CDFD"/>
<path d="M77.5167 26.0672C79.6339 26.0672 81.3503 24.3509 81.3503 22.2336C81.3503 20.1164 79.6339 18.4 77.5167 18.4C75.3995 18.4 73.6831 20.1164 73.6831 22.2336C73.6831 24.3509 75.3995 26.0672 77.5167 26.0672Z" fill="#A5CDFD"/>
</svg>
