<svg width="170" height="170" viewBox="0 0 170 170" fill="none" xmlns="http://www.w3.org/2000/svg">
<path d="M62.0702 91.6912C62.0702 91.6912 63.7566 107.549 68.8294 111.234C73.9022 114.913 87.7402 109.201 95.7302 91.6912H104.489C101.442 116.307 63.1242 146.764 63.1242 146.764L44.5942 128.234C44.5942 128.234 43.479 119.252 51.1902 110.085C55.9298 104.462 50.4286 91.6844 50.4286 91.6844H62.0702V91.6912Z" fill="#A5CDFD"/>
<path d="M95.7374 91.6913H82.9942C82.9942 91.6913 81.7022 102.503 70.251 111.914C76.133 113.886 88.3866 107.78 95.7374 91.6913Z" fill="#6398DB"/>
<path d="M95.7374 91.6913H88.5226C88.5226 91.6913 83.7082 107.644 70.251 111.914C76.133 113.886 88.3866 107.78 95.7374 91.6913Z" fill="#72ACF1"/>
<path d="M102.768 142.399C102.381 142.399 101.986 142.249 101.687 141.95C101.089 141.352 101.089 140.386 101.687 139.794L130.669 110.813C131.267 110.214 132.233 110.214 132.824 110.813C133.423 111.411 133.423 112.377 132.824 112.968L103.843 141.95C103.543 142.249 103.156 142.399 102.761 142.399H102.768Z" fill="#6398DB"/>
<path d="M131.757 135.238C131.757 138.353 129.234 140.876 126.12 140.876C123.005 140.876 120.482 138.353 120.482 135.238C120.482 132.124 123.005 129.601 126.12 129.601C129.234 129.601 131.757 132.124 131.757 135.238Z" fill="#E7F2FC"/>
<path d="M126.119 142.406C122.169 142.406 118.959 139.189 118.959 135.245C118.959 131.301 122.169 128.085 126.119 128.085C130.07 128.085 133.28 131.294 133.28 135.245C133.28 139.196 130.07 142.406 126.119 142.406ZM126.119 131.131C123.855 131.131 122.012 132.974 122.012 135.238C122.012 137.503 123.855 139.352 126.119 139.352C128.384 139.352 130.227 137.51 130.227 135.238C130.227 132.967 128.384 131.131 126.119 131.131Z" fill="#6398DB"/>
<path d="M114.043 117.524C114.043 120.639 111.52 123.162 108.406 123.162C105.291 123.162 102.769 120.639 102.769 117.524C102.769 114.41 105.291 111.887 108.406 111.887C111.52 111.887 114.043 114.41 114.043 117.524Z" fill="#E7F2FC"/>
<path d="M108.406 124.685C104.455 124.685 101.245 121.468 101.245 117.524C101.245 113.58 104.455 110.364 108.406 110.364C112.356 110.364 115.566 113.574 115.566 117.524C115.566 121.475 112.356 124.685 108.406 124.685ZM108.406 113.417C106.141 113.417 104.298 115.26 104.298 117.524C104.298 119.789 106.141 121.632 108.406 121.632C110.67 121.632 112.513 119.789 112.513 117.524C112.513 115.26 110.67 113.417 108.406 113.417Z" fill="#6398DB"/>
<path d="M133.668 91.6912H27.5672C27.5672 86.2648 23.1676 81.8652 17.7412 81.8652H143.494C138.067 81.8652 133.668 86.2648 133.668 91.6912Z" fill="#FB7600"/>
<path d="M121.876 91.6912H27.5604C27.5604 86.2648 23.1608 81.8652 17.7344 81.8652H131.696C126.269 81.8652 121.87 86.2648 121.87 91.6912H121.876Z" fill="#F89C04"/>
<path d="M17.748 152.606H59.8944L38.8212 131.532L17.748 152.606Z" fill="#F89C04"/>
<path d="M63.7433 147.383L44.0505 127.69C43.6697 127.31 43.0441 127.31 42.6633 127.69L38.8213 131.532L59.8945 152.606L63.7433 148.777C64.1309 148.396 64.1309 147.771 63.7433 147.383Z" fill="#FB7600"/>
<path d="M17.7412 129.03C20.9984 129.03 23.6368 131.668 23.6368 134.926C23.6368 131.668 26.2752 129.03 29.5324 129.03C26.2752 129.03 23.6368 126.392 23.6368 123.134C23.6368 126.392 20.9984 129.03 17.7412 129.03Z" fill="#72ACF1"/>
<path d="M35.4277 103.482C38.6849 103.482 41.3233 106.121 41.3233 109.378C41.3233 106.121 43.9617 103.482 47.2189 103.482C43.9617 103.482 41.3233 100.844 41.3233 97.5868C41.3233 100.844 38.6849 103.482 35.4277 103.482Z" fill="#FB7600"/>
<path d="M86.2919 41.8268H81.1035V57.5756H99.8919L89.6715 43.5472C88.8827 42.466 87.6315 41.8336 86.2987 41.8336L86.2919 41.8268Z" fill="#A5CDFD"/>
<path d="M89.6647 43.5404C88.8759 42.4592 87.6247 41.8268 86.2919 41.8268H81.1035V57.5756H99.8919L89.6715 43.5472L89.6647 43.5404ZM85.2719 44.9548H88.1143C88.7875 44.9548 89.4267 45.2744 89.8347 45.8116L97.2127 55.692C97.4711 56.0388 97.2263 56.5284 96.7911 56.5284H85.2719C84.6939 56.5284 84.2315 56.0592 84.2315 55.488V46.002C84.2315 45.424 84.7007 44.9616 85.2719 44.9616V44.9548Z" fill="#1452B9"/>
<path d="M49.0685 31.8649H79.7433C80.4913 31.8649 81.1033 32.4769 81.1033 33.2249V60.0373H47.7085V33.2249C47.7085 32.4769 48.3205 31.8649 49.0685 31.8649Z" fill="#F89C04"/>
<path d="M46.3011 60.0372H81.1035V62.1248H45.6211V60.7172C45.6211 60.3432 45.9271 60.0372 46.3011 60.0372Z" fill="#1452B9"/>
<path d="M64.4027 55.8689C63.8247 55.8689 63.3623 55.3997 63.3623 54.8285V37.0873C63.3623 36.5093 63.8315 36.0469 64.4027 36.0469C64.9739 36.0469 65.4431 36.5161 65.4431 37.0873V54.8285C65.4431 55.4065 64.9739 55.8689 64.4027 55.8689Z" fill="#FB7600"/>
<path d="M70.0536 55.8689C69.4756 55.8689 69.0132 55.3997 69.0132 54.8285V37.0873C69.0132 36.5093 69.4824 36.0469 70.0536 36.0469C70.6248 36.0469 71.094 36.5161 71.094 37.0873V54.8285C71.094 55.4065 70.6248 55.8689 70.0536 55.8689Z" fill="#FB7600"/>
<path d="M75.6976 55.8689C75.1196 55.8689 74.6572 55.3997 74.6572 54.8285V37.0873C74.6572 36.5093 75.1264 36.0469 75.6976 36.0469C76.2688 36.0469 76.738 36.5161 76.738 37.0873V54.8285C76.738 55.4065 76.2688 55.8689 75.6976 55.8689Z" fill="#FB7600"/>
<path d="M58.7587 55.8689C58.1807 55.8689 57.7183 55.3997 57.7183 54.8285V37.0873C57.7183 36.5093 58.1875 36.0469 58.7587 36.0469C59.3299 36.0469 59.7991 36.5161 59.7991 37.0873V54.8285C59.7991 55.4065 59.3299 55.8689 58.7587 55.8689Z" fill="#FB7600"/>
<path d="M53.1078 55.8689C52.5298 55.8689 52.0674 55.3997 52.0674 54.8285V37.0873C52.0674 36.5093 52.5366 36.0469 53.1078 36.0469C53.679 36.0469 54.1482 36.5161 54.1482 37.0873V54.8285C54.1482 55.4065 53.679 55.8689 53.1078 55.8689Z" fill="#FB7600"/>
<path d="M110.575 61.268L99.7491 57.5688H81.0967V73.6032H86.8359C86.8359 69.2784 90.3379 65.7764 94.6627 65.7764C98.9875 65.7764 102.374 69.1764 102.483 73.406L106.25 72.624C107.399 72.386 108.385 71.6652 108.956 70.6452L112.05 65.1508C112.88 63.6752 112.166 61.812 110.568 61.268H110.575Z" fill="#72ACF1"/>
<path d="M81.0967 62.1316H45.6143V69.4348C45.6143 71.74 47.4843 73.61 49.7895 73.61H52.3939C52.3939 69.2852 55.8959 65.7832 60.2207 65.7832C64.5455 65.7832 68.0475 69.2852 68.0475 73.61H81.0899V62.1316H81.0967Z" fill="#6398DB"/>
<path d="M94.6695 79.8661C98.1284 79.8661 100.932 77.0621 100.932 73.6033C100.932 70.1444 98.1284 67.3405 94.6695 67.3405C91.2107 67.3405 88.4067 70.1444 88.4067 73.6033C88.4067 77.0621 91.2107 79.8661 94.6695 79.8661Z" fill="#1452B9"/>
<path d="M94.6695 76.7312C96.3971 76.7312 97.7975 75.3308 97.7975 73.6032C97.7975 71.8757 96.3971 70.4752 94.6695 70.4752C92.942 70.4752 91.5415 71.8757 91.5415 73.6032C91.5415 75.3308 92.942 76.7312 94.6695 76.7312Z" fill="#6398DB"/>
<path d="M60.2276 79.8661C63.6865 79.8661 66.4904 77.0621 66.4904 73.6033C66.4904 70.1444 63.6865 67.3405 60.2276 67.3405C56.7688 67.3405 53.9648 70.1444 53.9648 73.6033C53.9648 77.0621 56.7688 79.8661 60.2276 79.8661Z" fill="#1452B9"/>
<path d="M60.2276 76.7312C61.9552 76.7312 63.3556 75.3308 63.3556 73.6032C63.3556 71.8757 61.9552 70.4752 60.2276 70.4752C58.5001 70.4752 57.0996 71.8757 57.0996 73.6032C57.0996 75.3308 58.5001 76.7312 60.2276 76.7312Z" fill="#6398DB"/>
<path d="M112.397 63.7908H108.997C108.099 63.7908 107.304 64.3688 107.018 65.2188L105.862 68.68C105.638 69.36 106.141 70.0536 106.855 70.0536H109.303L112.064 65.1508C112.308 64.7156 112.404 64.2532 112.397 63.7908Z" fill="#F89C04"/>
<path d="M107.997 65.552C108.14 65.1236 108.541 64.838 108.99 64.838H112.179C112.315 64.498 112.397 64.1444 112.39 63.7976H108.99C108.092 63.7976 107.297 64.3756 107.011 65.2256L105.855 68.6868C105.631 69.3668 106.134 70.0604 106.848 70.0604H109.296L109.881 69.02H107.569C107.215 69.02 106.964 68.6732 107.072 68.3332L107.997 65.5588V65.552Z" fill="#1452B9"/>
<path d="M88.2367 62.1316H85.1087C84.6735 62.1316 84.3267 61.778 84.3267 61.3496C84.3267 60.9212 84.6803 60.5676 85.1087 60.5676H88.2367C88.6719 60.5676 89.0187 60.9212 89.0187 61.3496C89.0187 61.778 88.6651 62.1316 88.2367 62.1316Z" fill="#1452B9"/>
<path d="M86.4754 24.7316C86.285 24.3916 86.1694 23.9972 86.1694 23.5756C86.1694 22.2768 87.2234 21.2228 88.5222 21.2228C89.1274 21.2228 89.685 21.454 90.0998 21.8348C90.3718 19.754 92.1398 18.1492 94.2954 18.1492C96.6346 18.1492 98.5318 20.0464 98.5318 22.3856C98.5318 22.6508 98.5046 22.9092 98.457 23.1608C98.695 23.1132 98.9398 23.0792 99.1914 23.0792C101.163 23.0792 102.761 24.6772 102.761 26.6492C102.761 28.6212 101.163 30.2192 99.1914 30.2192H87.0058C85.4758 30.2192 84.2314 28.9748 84.2314 27.4448C84.2314 26.0916 85.197 24.9696 86.4754 24.7248V24.7316Z" fill="#6398DB"/>
<path d="M88.8693 26.8941C88.7537 26.6901 88.6857 26.4453 88.6857 26.1937C88.6857 25.4049 89.3249 24.7657 90.1137 24.7657C90.4809 24.7657 90.8209 24.9085 91.0725 25.1397C91.2357 23.8749 92.3101 22.9025 93.6225 22.9025C95.0437 22.9025 96.1929 24.0517 96.1929 25.4729C96.1929 25.6361 96.1793 25.7925 96.1453 25.9489C96.2881 25.9217 96.4377 25.9013 96.5873 25.9013C97.7841 25.9013 98.7565 26.8737 98.7565 28.0637C98.7565 29.2537 97.7841 30.2329 96.5873 30.2329H89.1889C88.2573 30.2329 87.5093 29.4781 87.5093 28.5465C87.5093 27.7305 88.0941 27.0437 88.8761 26.8941H88.8693Z" fill="#A5CDFD"/>
<path d="M53.985 19.244C53.8014 18.9244 53.6994 18.5572 53.6994 18.1628C53.6994 16.9456 54.6854 15.9596 55.9026 15.9596C56.4738 15.9596 56.9906 16.1772 57.3782 16.5308C57.6298 14.5792 59.2958 13.0764 61.3086 13.0764C63.4982 13.0764 65.2798 14.8512 65.2798 17.0476C65.2798 17.2992 65.2526 17.5372 65.2118 17.7752C65.4362 17.7276 65.6606 17.7004 65.8986 17.7004C67.7482 17.7004 69.2442 19.1964 69.2442 21.046C69.2442 22.8956 67.7482 24.3916 65.8986 24.3916H54.4814C53.0466 24.3916 51.8838 23.2288 51.8838 21.794C51.8838 20.5292 52.7882 19.4752 53.9918 19.244H53.985Z" fill="#72ACF1"/>
<path d="M56.2222 21.2636C56.1134 21.0664 56.0522 20.842 56.0522 20.604C56.0522 19.8628 56.6506 19.2712 57.3918 19.2712C57.7386 19.2712 58.0514 19.4004 58.2894 19.618C58.4458 18.4348 59.4522 17.5236 60.6762 17.5236C62.009 17.5236 63.0834 18.6048 63.0834 19.9308C63.0834 20.0804 63.0698 20.23 63.0426 20.3728C63.1786 20.3456 63.3146 20.3252 63.4574 20.3252C64.5794 20.3252 65.4906 21.2364 65.4906 22.3584C65.4906 23.4804 64.5794 24.3916 63.4574 24.3916H56.5214C55.651 24.3916 54.9438 23.6844 54.9438 22.814C54.9438 22.0456 55.4946 21.4064 56.2222 21.2704V21.2636Z" fill="#A5CDFD"/>
<path d="M92.6907 32.1573C92.4595 31.7425 92.3235 31.2665 92.3235 30.7565C92.3235 29.1857 93.5951 27.9141 95.1659 27.9141C95.9003 27.9141 96.5735 28.1929 97.0767 28.6553C97.4031 26.1393 99.5519 24.1945 102.156 24.1945C104.992 24.1945 107.284 26.4929 107.284 29.3217C107.284 29.6413 107.25 29.9609 107.195 30.2669C107.481 30.2057 107.78 30.1717 108.086 30.1717C110.473 30.1717 112.404 32.1029 112.404 34.4897C112.404 36.8765 110.466 38.8145 108.086 38.8145H93.3299C91.4735 38.8145 89.9707 37.3117 89.9707 35.4553C89.9707 33.8165 91.1403 32.4633 92.6907 32.1641V32.1573Z" fill="#72ACF1"/>
<path d="M95.5874 34.7684C95.4446 34.5168 95.363 34.2244 95.363 33.9184C95.363 32.9664 96.1382 32.1912 97.0902 32.1912C97.539 32.1912 97.9402 32.3612 98.2462 32.64C98.4434 31.11 99.749 29.9268 101.333 29.9268C103.054 29.9268 104.448 31.3208 104.448 33.0412C104.448 33.2384 104.427 33.4288 104.393 33.6124C104.57 33.5716 104.747 33.5512 104.931 33.5512C106.379 33.5512 107.555 34.7276 107.555 36.176C107.555 37.6244 106.379 38.8008 104.931 38.8008H95.9682C94.8394 38.8008 93.9282 37.8896 93.9282 36.7608C93.9282 35.768 94.6422 34.9452 95.5806 34.7616L95.5874 34.7684Z" fill="#A5CDFD"/>
</svg>
