<svg width="151" height="39" viewBox="0 0 151 39" fill="none" xmlns="http://www.w3.org/2000/svg">
<g clip-path="url(#clip0_183_2207)">
<path d="M1.27872 12.7886C2.12864 11.2079 3.29629 9.97674 4.76578 9.10299C6.23527 8.22924 7.86363 7.78442 9.6429 7.78442C11.2474 7.78442 12.6534 8.10215 13.8528 8.72966C15.0522 9.35717 16.0054 10.1436 16.7282 11.0808V8.11804H20.9937V28.5479H16.7282V25.5057C16.0133 26.4668 15.0363 27.277 13.7972 27.9125C12.558 28.5559 11.1521 28.8736 9.57141 28.8736C7.81597 28.8736 6.21144 28.4208 4.7499 27.5232C3.28835 26.6177 2.13659 25.3627 1.28667 23.7423C0.436745 22.1219 0.0078125 20.287 0.0078125 18.2377C0.0078125 16.1883 0.436745 14.3693 1.28667 12.7886H1.27872ZM15.8465 14.6473C15.2667 13.6068 14.5041 12.8204 13.5668 12.2723C12.6295 11.7322 11.6128 11.4542 10.5246 11.4542C9.43638 11.4542 8.41965 11.7163 7.48235 12.2485C6.54506 12.7807 5.78251 13.5591 5.20266 14.5838C4.6228 15.6085 4.32891 16.8238 4.32891 18.2377C4.32891 19.6515 4.6228 20.8827 5.20266 21.9471C5.78251 23.0115 6.553 23.8217 7.49824 24.3777C8.45142 24.9338 9.46021 25.2118 10.5166 25.2118C11.5731 25.2118 12.6137 24.9417 13.5589 24.3936C14.4962 23.8535 15.2587 23.0512 15.8386 22.0027C16.4184 20.9542 16.7123 19.723 16.7123 18.3171C16.7123 16.9111 16.4184 15.6879 15.8386 14.6473H15.8465Z" fill="#2C5FAC"/>
<path d="M30.7717 1.11206V28.5478H26.5459V1.11206H30.7717Z" fill="#2C5FAC"/>
<path d="M48.7712 8.72965C49.9945 9.35716 50.9556 10.1435 51.6467 11.0808V8.11802H55.9122V28.8815C55.9122 30.7561 55.515 32.4321 54.7286 33.9016C53.9343 35.3711 52.7905 36.5308 51.2972 37.3648C49.8039 38.2068 48.0166 38.6278 45.9435 38.6278C43.1713 38.6278 40.8757 37.9765 39.0488 36.6817C37.2218 35.387 36.1813 33.6236 35.9351 31.3995H40.1211C40.4388 32.4639 41.1299 33.3218 42.1784 33.9731C43.2269 34.6244 44.4819 34.9581 45.9435 34.9581C47.6513 34.9581 49.0254 34.4417 50.0739 33.4012C51.1224 32.3606 51.6467 30.8514 51.6467 28.8815V25.4739C50.9318 26.435 49.9627 27.2452 48.7395 27.9045C47.5162 28.5638 46.1262 28.8895 44.5693 28.8895C42.79 28.8895 41.1617 28.4367 39.6922 27.5391C38.2227 26.6336 37.063 25.3786 36.2051 23.7582C35.3552 22.1377 34.9263 20.3029 34.9263 18.2535C34.9263 16.2042 35.3552 14.3852 36.2051 12.8045C37.055 11.2238 38.2227 9.99261 39.6922 9.11886C41.1617 8.24511 42.79 7.80029 44.5693 7.80029C46.15 7.80029 47.5559 8.11802 48.7792 8.74553L48.7712 8.72965ZM50.7729 14.6473C50.1931 13.6068 49.4305 12.8204 48.4932 12.2723C47.5559 11.7322 46.5392 11.4542 45.451 11.4542C44.3628 11.4542 43.346 11.7163 42.4088 12.2485C41.4715 12.7807 40.7089 13.5591 40.1291 14.5838C39.5492 15.6084 39.2553 16.8238 39.2553 18.2376C39.2553 19.6515 39.5492 20.8827 40.1291 21.9471C40.7089 23.0115 41.4794 23.8217 42.4246 24.3777C43.3778 24.9338 44.3866 25.2118 45.443 25.2118C46.4995 25.2118 47.5401 24.9417 48.4853 24.3936C49.4226 23.8535 50.1851 23.0512 50.765 22.0027C51.3448 20.9542 51.6387 19.723 51.6387 18.3171C51.6387 16.9111 51.3448 15.6879 50.765 14.6473H50.7729Z" fill="#2C5FAC"/>
<path d="M80.0434 19.9057H64.435C64.5621 21.5341 65.1658 22.8447 66.254 23.8376C67.3422 24.8305 68.6767 25.323 70.2574 25.323C72.5291 25.323 74.1337 24.3698 75.0789 22.4714H79.6383C79.0187 24.3539 77.8987 25.8869 76.2863 27.0864C74.6659 28.2858 72.6562 28.8815 70.2653 28.8815C68.3113 28.8815 66.5638 28.4447 65.0228 27.563C63.4818 26.6892 62.2665 25.4501 61.3928 23.8535C60.519 22.2569 60.0742 20.4141 60.0742 18.3091C60.0742 16.2042 60.5032 14.3614 61.3531 12.7648C62.203 11.1682 63.4024 9.94497 64.9513 9.07916C66.4923 8.21336 68.2716 7.78442 70.2733 7.78442C72.275 7.78442 73.9192 8.20541 75.4284 9.04739C76.9376 9.88937 78.1132 11.065 78.9472 12.5901C79.7892 14.1072 80.2102 15.8626 80.2102 17.8326C80.2102 18.5951 80.1625 19.2941 80.0593 19.9057H80.0434ZM75.7779 16.4981C75.7541 14.9412 75.1981 13.6942 74.1098 12.7569C73.0216 11.8196 71.6792 11.3509 70.0667 11.3509C68.6052 11.3509 67.3581 11.8116 66.3255 12.741C65.285 13.6703 64.6733 14.9253 64.4747 16.506H75.7858L75.7779 16.4981Z" fill="#2C5FAC"/>
<path d="M91.5135 8.72958C92.7606 8.10207 94.1507 7.78434 95.6837 7.78434C97.4868 7.78434 99.1152 8.21327 100.577 9.07908C102.038 9.94489 103.182 11.1761 104.024 12.7647C104.866 14.3613 105.287 16.1803 105.287 18.2296C105.287 20.279 104.866 22.1138 104.024 23.7343C103.182 25.3547 102.03 26.6176 100.561 27.5152C99.0913 28.4207 97.463 28.8656 95.6837 28.8656C94.103 28.8656 92.6971 28.5558 91.4738 27.9362C90.2506 27.3166 89.2815 26.5303 88.5666 25.5612V28.524H84.3408V1.11206H88.5666V11.1602C89.2815 10.1752 90.2664 9.36503 91.5135 8.72958ZM100.116 14.5917C99.5361 13.567 98.7656 12.7885 97.8204 12.2564C96.8672 11.7242 95.8505 11.462 94.7623 11.462C93.6741 11.462 92.6891 11.7321 91.7439 12.2802C90.7907 12.8283 90.0281 13.6146 89.4483 14.6552C88.8684 15.6958 88.5745 16.919 88.5745 18.3249C88.5745 19.7309 88.8684 20.9621 89.4483 22.0106C90.0281 23.0591 90.7986 23.8613 91.7439 24.4015C92.6971 24.9416 93.7058 25.2196 94.7623 25.2196C95.8187 25.2196 96.8672 24.9416 97.8204 24.3856C98.7736 23.8296 99.5361 23.0194 100.116 21.955C100.696 20.8906 100.99 19.6594 100.99 18.2455C100.99 16.8316 100.696 15.6163 100.116 14.5917Z" fill="#2C5FAC"/>
<path d="M116.169 8.65817C117.194 8.07832 118.409 7.78442 119.823 7.78442V12.1611H118.751C117.091 12.1611 115.843 12.5821 114.986 13.4241C114.136 14.2661 113.707 15.7197 113.707 17.8008V28.5559H109.481V8.11804H113.707V11.0808C114.326 10.0403 115.144 9.23008 116.169 8.65023V8.65817Z" fill="#2C5FAC"/>
<path d="M123.938 4.63077C123.421 4.11446 123.159 3.47106 123.159 2.70057C123.159 1.93008 123.421 1.29463 123.938 0.770376C124.454 0.254069 125.097 -0.00805664 125.868 -0.00805664C126.638 -0.00805664 127.242 0.254069 127.758 0.770376C128.275 1.28668 128.537 1.93008 128.537 2.70057C128.537 3.47106 128.275 4.10651 127.758 4.63077C127.242 5.15502 126.607 5.4092 125.868 5.4092C125.129 5.4092 124.462 5.14707 123.938 4.63077ZM127.941 8.11782V28.5477H123.715V8.11782H127.941Z" fill="#2C5FAC"/>
<path d="M141.587 18.3488L151.008 28.5478H145.297L137.735 19.7627V28.5478H133.509V1.11206H137.735V17.054L145.154 8.11795H151.008L141.587 18.3488Z" fill="#2C5FAC"/>
</g>
<defs>
<clipPath id="clip0_183_2207">
<rect width="151" height="38.6277" fill="white"/>
</clipPath>
</defs>
</svg>
