<svg width="44" height="50" viewBox="0 0 44 50" fill="none" xmlns="http://www.w3.org/2000/svg">
<g clip-path="url(#clip0_81_372)">
<g clip-path="url(#clip1_81_372)">
<g clip-path="url(#clip2_81_372)">
<mask id="mask0_81_372" style="mask-type:luminance" maskUnits="userSpaceOnUse" x="0" y="0" width="44" height="50">
<path d="M43.9996 0.00292969H0.0595703V49.9969H43.9996V0.00292969Z" fill="white"/>
</mask>
<g mask="url(#mask0_81_372)">
<mask id="mask1_81_372" style="mask-type:luminance" maskUnits="userSpaceOnUse" x="0" y="0" width="44" height="50">
<path d="M43.9996 0.00292969H0.0595703V49.9969H43.9996V0.00292969Z" fill="white"/>
</mask>
<g mask="url(#mask1_81_372)">
<g opacity="0.3">
<mask id="mask2_81_372" style="mask-type:luminance" maskUnits="userSpaceOnUse" x="11" y="0" width="7" height="3">
<path d="M17.636 0.00292969H11.7773V2.93226H17.636V0.00292969Z" fill="white"/>
</mask>
<g mask="url(#mask2_81_372)">
<path d="M13.242 2.93226H16.1713C16.5598 2.93226 16.9323 2.77795 17.207 2.50327C17.4817 2.22859 17.636 1.85605 17.636 1.4676V0.00292969H11.7773V1.4676C11.7773 1.85605 11.9317 2.22859 12.2063 2.50327C12.481 2.77795 12.8536 2.93226 13.242 2.93226Z" fill="white"/>
</g>
</g>
<path d="M17.6356 33.7879V29.7402L16.016 28.9304C15.2866 28.5651 14.6733 28.004 14.2447 27.31C13.8161 26.6159 13.5891 25.8163 13.5891 25.0006C13.5891 24.1848 13.8161 23.3852 14.2447 22.6912C14.6733 21.9971 15.2866 21.436 16.016 21.0707L17.6356 20.2596V16.2119C17.6356 14.6581 18.2528 13.1679 19.3515 12.0692C20.4502 10.9705 21.9404 10.3532 23.4942 10.3532H29.3529V4.39693C29.3515 3.23199 28.8881 2.11516 28.0644 1.29142C27.2407 0.467688 26.1238 0.00430791 24.9589 0.00292969L20.5649 0.00292969V1.4676C20.5635 2.63253 20.1001 3.74936 19.2764 4.5731C18.4527 5.39684 17.3358 5.86022 16.1709 5.8616H13.2416C12.0766 5.86022 10.9598 5.39684 10.1361 4.5731C9.31233 3.74936 8.84895 2.63253 8.84757 1.4676V0.00292969H4.45357C3.28863 0.00430791 2.1718 0.467688 1.34807 1.29142C0.524329 2.11516 0.0609485 3.23199 0.0595703 4.39693L0.0595703 45.6029C0.0609485 46.7678 0.524329 47.8847 1.34807 48.7084C2.1718 49.5321 3.28863 49.9955 4.45357 49.9969H24.9589C26.1238 49.9955 27.2407 49.5321 28.0644 48.7084C28.8881 47.8847 29.3515 46.7678 29.3529 45.6029V39.6466H23.4942C21.9404 39.6466 20.4502 39.0293 19.3515 37.9306C18.2528 36.8319 17.6356 35.3417 17.6356 33.7879ZM16.1709 44.0406H13.2416C12.8531 44.0406 12.4806 43.8863 12.2059 43.6116C11.9312 43.3369 11.7769 42.9644 11.7769 42.5759C11.7769 42.1875 11.9312 41.8149 12.2059 41.5402C12.4806 41.2656 12.8531 41.1112 13.2416 41.1112H16.1709C16.5594 41.1112 16.9319 41.2656 17.2066 41.5402C17.4813 41.8149 17.6356 42.1875 17.6356 42.5759C17.6356 42.9644 17.4813 43.3369 17.2066 43.6116C16.9319 43.8863 16.5594 44.0406 16.1709 44.0406Z" fill="white"/>
<g opacity="0.3">
<mask id="mask3_81_372" style="mask-type:luminance" maskUnits="userSpaceOnUse" x="29" y="22" width="6" height="6">
<path d="M34.74 22.417H29.8252V27.0896H34.74V22.417Z" fill="white"/>
</mask>
<g mask="url(#mask3_81_372)">
<path d="M32.7067 23.2658L32.2823 22.417L31.8578 23.2658C31.7525 23.4762 31.5982 23.6581 31.4079 23.7964C31.2176 23.9346 30.9968 24.025 30.7642 24.06L29.8242 24.2019L30.5025 24.8685C30.6699 25.0336 30.7952 25.2365 30.8677 25.4602C30.9402 25.6838 30.9578 25.9216 30.9191 26.1535L30.7629 27.0896L31.6079 26.6522C31.8163 26.5444 32.0476 26.4882 32.2823 26.4882C32.5169 26.4882 32.7482 26.5444 32.9567 26.6522L33.8016 27.0896L33.6454 26.1535C33.6067 25.9216 33.6243 25.6838 33.6968 25.4602C33.7694 25.2365 33.8946 25.0336 34.062 24.8685L34.739 24.2019L33.8003 24.06C33.5677 24.025 33.3469 23.9346 33.1566 23.7964C32.9663 23.6581 32.812 23.4762 32.7067 23.2658Z" fill="white"/>
</g>
</g>
<path d="M41.0698 13.2825H23.4938C22.7173 13.2835 21.9728 13.5925 21.4236 14.1416C20.8745 14.6907 20.5655 15.4352 20.5645 16.2118V22.0705L17.3266 23.6901C17.0835 23.8118 16.879 23.9988 16.7361 24.2301C16.5933 24.4614 16.5176 24.7279 16.5176 24.9998C16.5176 25.2717 16.5933 25.5382 16.7361 25.7695C16.879 26.0009 17.0835 26.1878 17.3266 26.3095L20.5645 27.9291V33.7878C20.5655 34.5644 20.8745 35.3089 21.4236 35.858C21.9728 36.4071 22.7173 36.7161 23.4938 36.7171H41.0698C41.8464 36.7161 42.5909 36.4071 43.1401 35.858C43.6892 35.3089 43.9981 34.5644 43.9992 33.7878V16.2118C43.9981 15.4352 43.6892 14.6907 43.1401 14.1416C42.5909 13.5925 41.8464 13.2835 41.0698 13.2825ZM38.8826 24.233L36.6589 26.4215L37.1706 29.4993C37.215 29.7676 37.1838 30.0429 37.0807 30.2945C36.9775 30.5462 36.8064 30.7641 36.5865 30.9241C36.3666 31.084 36.1065 31.1796 35.8353 31.2003C35.5642 31.2209 35.2926 31.1656 35.051 31.0407L32.2818 29.6021L29.5127 31.0407C29.2713 31.1639 29.0005 31.2177 28.7304 31.1962C28.4603 31.1747 28.2015 31.0789 27.9826 30.9192C27.7637 30.7595 27.5933 30.5423 27.4904 30.2916C27.3875 30.041 27.3561 29.7667 27.3996 29.4993L27.9113 26.4215L25.6811 24.233C25.4889 24.0419 25.3535 23.8014 25.2898 23.538C25.2261 23.2746 25.2366 22.9987 25.3203 22.741C25.4039 22.4832 25.5573 22.2537 25.7635 22.0779C25.9697 21.9021 26.2206 21.7868 26.4883 21.745L29.5738 21.2815L30.9721 18.4902C31.4694 17.4968 33.0942 17.4968 33.5916 18.4902L34.9859 21.2802L38.0754 21.745C38.3445 21.7855 38.597 21.9002 38.8046 22.0761C39.0123 22.252 39.1668 22.4823 39.251 22.7411C39.3352 22.9999 39.3457 23.277 39.2813 23.5414C39.2169 23.8058 39.0802 24.0471 38.8865 24.2382" fill="white"/>
</g>
</g>
</g>
</g>
</g>
<defs>
<clipPath id="clip0_81_372">
<rect width="43.94" height="50" fill="white" transform="translate(0.0595703)"/>
</clipPath>
<clipPath id="clip1_81_372">
<rect width="43.94" height="50" fill="white" transform="translate(0.0595703)"/>
</clipPath>
<clipPath id="clip2_81_372">
<rect width="43.94" height="49.994" fill="white" transform="translate(0.0595703 0.00292969)"/>
</clipPath>
</defs>
</svg>
