<svg width="50" height="50" viewBox="0 0 50 50" fill="none" xmlns="http://www.w3.org/2000/svg">
<g clip-path="url(#clip0_81_310)">
<g clip-path="url(#clip1_81_310)">
<g clip-path="url(#clip2_81_310)">
<mask id="mask0_81_310" style="mask-type:luminance" maskUnits="userSpaceOnUse" x="0" y="0" width="50" height="50">
<path d="M50 0H0V50H50V0Z" fill="white"/>
</mask>
<g mask="url(#mask0_81_310)">
<mask id="mask1_81_310" style="mask-type:luminance" maskUnits="userSpaceOnUse" x="0" y="0" width="50" height="50">
<path d="M50 0H0V50H50V0Z" fill="white"/>
</mask>
<g mask="url(#mask1_81_310)">
<g opacity="0.3">
<mask id="mask2_81_310" style="mask-type:luminance" maskUnits="userSpaceOnUse" x="0" y="16" width="50" height="7">
<path d="M50 16.6667H0V22.9167H50V16.6667Z" fill="white"/>
</mask>
<g mask="url(#mask2_81_310)">
<path d="M49.9909 16.6667H0V18.7501C0 19.8551 0.438987 20.915 1.22039 21.6964C2.00179 22.4778 3.0616 22.9167 4.16667 22.9167H10.4167C11.5217 22.9167 12.5815 22.4778 13.3629 21.6964C14.1443 20.915 14.5833 19.8551 14.5833 18.7501C14.5833 19.8551 15.0223 20.915 15.8037 21.6964C16.5851 22.4778 17.6449 22.9167 18.75 22.9167H31.25C32.3551 22.9167 33.4149 22.4778 34.1963 21.6964C34.9777 20.915 35.4167 19.8551 35.4167 18.7501C35.4167 19.8551 35.8557 20.915 36.6371 21.6964C37.4185 22.4778 38.4783 22.9167 39.5833 22.9167H45.8333C46.9384 22.9167 47.9982 22.4778 48.7796 21.6964C49.561 20.915 50 19.8551 50 18.7501V16.6667H49.9909Z" fill="white"/>
</g>
</g>
<path d="M49.4883 14.5833L45.7526 1.51042C45.6282 1.07531 45.3654 0.692557 45.0041 0.420047C44.6428 0.147536 44.2026 8.79008e-05 43.75 0L34.207 0L37.125 14.5833H49.4883Z" fill="white"/>
<path d="M15.793 0H6.25C5.79744 8.79008e-05 5.35722 0.147536 4.99591 0.420047C4.6346 0.692557 4.37185 1.07531 4.2474 1.51042L0.511719 14.5833H12.875L15.793 0Z" fill="white"/>
<path d="M29.9596 0H20.0404L17.125 14.5833H32.875L29.9596 0Z" fill="white"/>
<path d="M39.583 25.0001C38.0447 25.0017 36.5603 24.4335 35.4163 23.405C34.2722 24.4332 32.7879 25.0014 31.2497 25.0001H18.7497C17.2114 25.0014 15.7271 24.4332 14.583 23.405C13.4389 24.4332 11.9546 25.0014 10.4163 25.0001H4.16634C3.45616 24.9986 2.75149 24.8753 2.08301 24.6355V47.9167C2.08301 48.4693 2.3025 48.9992 2.6932 49.3899C3.0839 49.7806 3.61381 50.0001 4.16634 50.0001H8.33301V31.2501C8.33301 30.6975 8.5525 30.1676 8.9432 29.7769C9.3339 29.3862 9.86381 29.1667 10.4163 29.1667H20.833C21.3855 29.1667 21.9154 29.3862 22.3061 29.7769C22.6968 30.1676 22.9163 30.6975 22.9163 31.2501V50.0001H45.833C46.3855 50.0001 46.9154 49.7806 47.3061 49.3899C47.6968 48.9992 47.9163 48.4693 47.9163 47.9167V24.6355C47.2479 24.8753 46.5432 24.9986 45.833 25.0001H39.583ZM41.6663 37.5001C41.6663 38.0526 41.4468 38.5825 41.0561 38.9732C40.6654 39.3639 40.1355 39.5834 39.583 39.5834H29.1663C28.6138 39.5834 28.0839 39.3639 27.6932 38.9732C27.3025 38.5825 27.083 38.0526 27.083 37.5001V31.2501C27.083 30.6975 27.3025 30.1676 27.6932 29.7769C28.0839 29.3862 28.6138 29.1667 29.1663 29.1667H39.583C40.1355 29.1667 40.6654 29.3862 41.0561 29.7769C41.4468 30.1676 41.6663 30.6975 41.6663 31.2501V37.5001Z" fill="white"/>
</g>
</g>
</g>
</g>
</g>
<defs>
<clipPath id="clip0_81_310">
<rect width="50" height="50" fill="white"/>
</clipPath>
<clipPath id="clip1_81_310">
<rect width="50" height="50" fill="white"/>
</clipPath>
<clipPath id="clip2_81_310">
<rect width="50" height="50" fill="white"/>
</clipPath>
</defs>
</svg>
