<svg width="51" height="50" viewBox="0 0 51 50" fill="none" xmlns="http://www.w3.org/2000/svg">
<g clip-path="url(#clip0_81_336)">
<g clip-path="url(#clip1_81_336)">
<g clip-path="url(#clip2_81_336)">
<mask id="mask0_81_336" style="mask-type:luminance" maskUnits="userSpaceOnUse" x="0" y="0" width="51" height="50">
<path d="M50.5 0H0.5V50H50.5V0Z" fill="white"/>
</mask>
<g mask="url(#mask0_81_336)">
<mask id="mask1_81_336" style="mask-type:luminance" maskUnits="userSpaceOnUse" x="0" y="0" width="51" height="50">
<path d="M50.5 0H0.5V50H50.5V0Z" fill="white"/>
</mask>
<g mask="url(#mask1_81_336)">
<g opacity="0.3">
<mask id="mask2_81_336" style="mask-type:luminance" maskUnits="userSpaceOnUse" x="35" y="10" width="7" height="7">
<path d="M41.7109 10.3464H35.5586V16.5964H41.7109V10.3464Z" fill="white"/>
</mask>
<g mask="url(#mask2_81_336)">
<path d="M37.3164 10.3464H35.5586V16.5964H41.7109V14.741C41.7096 13.5759 41.2461 12.4589 40.4223 11.6351C39.5984 10.8113 38.4815 10.3478 37.3164 10.3464Z" fill="white"/>
</g>
</g>
<path d="M31.1641 0H13.5859C13.1974 0 12.8248 0.154331 12.5501 0.429043C12.2754 0.703754 12.1211 1.07634 12.1211 1.46484V16.5964H32.6289V1.46484C32.6289 1.07634 32.4746 0.703754 32.1999 0.429043C31.9252 0.154331 31.5526 0 31.1641 0Z" fill="white"/>
<g opacity="0.3">
<mask id="mask3_81_336" style="mask-type:luminance" maskUnits="userSpaceOnUse" x="0" y="10" width="10" height="7">
<path d="M9.19141 10.3464H0.5V16.5964H9.19141V10.3464Z" fill="white"/>
</mask>
<g mask="url(#mask3_81_336)">
<path d="M9.19141 10.3464H5.08984C3.87254 10.3464 2.7051 10.83 1.84433 11.6908C0.983571 12.5515 0.5 13.719 0.5 14.9363L0.5 16.5964H9.19141V10.3464Z" fill="white"/>
</g>
</g>
<g opacity="0.3">
<mask id="mask4_81_336" style="mask-type:luminance" maskUnits="userSpaceOnUse" x="33" y="28" width="18" height="11">
<path d="M50.5 28.8086H33.8984V38.3789H50.5V28.8086Z" fill="white"/>
</mask>
<g mask="url(#mask4_81_336)">
<path d="M33.8984 33.5938C33.8984 35.7617 35.6836 38.3789 37.9023 38.3789H49.0352C49.4237 38.3789 49.7962 38.2246 50.071 37.9499C50.3457 37.6752 50.5 37.3026 50.5 36.9141V30.2734C50.5 29.8849 50.3457 29.5123 50.071 29.2376C49.7962 28.9629 49.4237 28.8086 49.0352 28.8086H37.9023C35.6888 28.8086 33.8984 31.4271 33.8984 33.5938ZM40.2461 33.5938C40.2461 33.8835 40.1602 34.1667 39.9992 34.4076C39.8383 34.6485 39.6095 34.8362 39.3418 34.9471C39.0742 35.058 38.7796 35.087 38.4955 35.0304C38.2113 34.9739 37.9503 34.8344 37.7454 34.6296C37.5406 34.4247 37.4011 34.1637 37.3446 33.8795C37.288 33.5954 37.317 33.3008 37.4279 33.0332C37.5388 32.7655 37.7265 32.5367 37.9674 32.3758C38.2083 32.2148 38.4915 32.1289 38.7812 32.1289C39.1698 32.1289 39.5423 32.2832 39.8171 32.5579C40.0918 32.8327 40.2461 33.2052 40.2461 33.5938Z" fill="white"/>
</g>
</g>
<path d="M32.9115 38.7904C31.6771 37.3125 30.9687 35.4167 30.9687 33.5938C30.9687 31.7709 31.6771 29.875 32.9115 28.3972C34.2669 26.7735 36.0365 25.8789 37.9023 25.8789H47.9609V21.4844C47.961 21.2457 47.9444 21.0073 47.9115 20.7709C47.8597 20.4246 47.6848 20.1085 47.4189 19.8808C47.1529 19.6531 46.8137 19.529 46.4635 19.5313H0.5V44.9883C0.5 47.7513 2.47135 50 4.89453 50H43.5664C45.9896 50 47.9609 47.7513 47.9609 44.9883V41.3086H37.9023C36.0391 41.3086 34.2669 40.4141 32.9115 38.7904Z" fill="white"/>
</g>
</g>
</g>
</g>
</g>
<defs>
<clipPath id="clip0_81_336">
<rect width="50" height="50" fill="white" transform="translate(0.5)"/>
</clipPath>
<clipPath id="clip1_81_336">
<rect width="50" height="50" fill="white" transform="translate(0.5)"/>
</clipPath>
<clipPath id="clip2_81_336">
<rect width="50" height="50" fill="white" transform="translate(0.5)"/>
</clipPath>
</defs>
</svg>
